<svg xmlns="http://www.w3.org/2000/svg" width="512" height="512" xmlns:v="https://vecta.io/nano"><path d="M268.075 39.376l2.732 1.098 9.02 3.667 6.439 2.598 17.374 7.044 29.11 11.802 7.439 3.014 49.314 19.574 18.615 7.267 17.455 6.726 10.807 4.216 4.941 1.886c11.779 4.393 18.88 9.894 26.679 19.733l2.535 3.074 4.321 5.313c2.143 2.612 4.368 5.117 6.645 7.613 3.909 4.289 7.576 8.732 11.215 13.25 3.066 3.69 6.33 7.178 9.633 10.656C504 170 504 170 504 173l-12.903 6.079-4.369 2.06C459.482 194 459.482 194 456 194l-.334 39.379-.149 18.287-.097 17.662-.085 6.724c-.719 11.45-.719 11.45 3.055 21.855 3.736 3.601 8.004 5.789 12.61 8.092 18.294 14.352 29.693 37.283 33 60 1.746 29.406-3.139 54.953-22.922 77.644-16.012 17.766-37.947 30.869-62.227 32.577-30.535 1.042-55.435-5.524-78.449-26.6C325.136 434.907 316.013 415.702 312 395l-1.648.808-17.084 8.371-6.363 3.119-9.182 4.498-2.842 1.396-5.364 2.584c-1.646.8-3.271 1.646-4.867 2.541-3.083 1.633-5.375 2.84-8.906 2.402-2.357-.744-4.513-1.656-6.743-2.72l-2.125-.946c-2.182-.996-4.329-2.048-6.476-3.117l-2.395-1.175-7.628-3.763-7.964-3.909-5.238-2.572-19.298-9.331-25-12-1.841-.889-14.908-7.204-44.461-21.387-23.562-11.297L56 325l-1-130-30-14-17-8c.534-4.112 2.698-6.127 5.5-9.062 3.502-3.729 6.851-7.513 10.063-11.5 3.588-4.446 7.343-8.689 11.191-12.91 2.308-2.597 4.502-5.261 6.684-7.965l2.173-2.624a117.88 117.88 0 0 0 4.277-5.564c7.745-9.892 17.914-13.206 29.332-17.589l6.422-2.553 17.276-6.773 17.986-7.086 22.102-8.714 45.665-18.184 9.553-3.858 23.963-9.686 13.764-5.547 5.006-2.026 6.8-2.736 1.976-.816c7.854-3.095 12.901-1.501 20.344 1.569z" fill="#ffcf44"/><path d="M457.149 116.783c2.426 1.595 4.122 3.473 6.038 5.654l2.387 2.715c3.119 3.662 6.151 7.39 9.176 11.129 2.185 2.64 4.442 5.186 6.75 7.719 3.909 4.289 7.576 8.732 11.215 13.25 3.066 3.69 6.33 7.178 9.633 10.656C504 170 504 170 504 173l-12.903 6.079-4.369 2.06C459.482 194 459.482 194 456 194l-.334 39.379-.149 18.287-.097 17.662-.085 6.724c-.719 11.45-.719 11.45 3.055 21.855 3.736 3.601 8.004 5.789 12.61 8.092 18.294 14.352 29.693 37.283 33 60 1.746 29.406-3.139 54.953-22.922 77.644-16.012 17.766-37.947 30.869-62.227 32.577-30.535 1.042-55.435-5.524-78.449-26.6C325.136 434.907 316.013 415.702 312 395l-1.648.808-17.084 8.371-6.363 3.119-9.182 4.498-2.842 1.396C258.912 421 258.912 421 256 421V196c7.08-3.218 14.103-6.324 21.322-9.182l2.939-1.171 9.575-3.804 6.836-2.72 18.059-7.176 17.758-7.061 57.29-22.733 7.238-2.863 13.563-5.359c14.204-5.613 28.332-11.368 42.329-17.483 2.092-.449 2.092-.449 4.241.334z" fill="#febc1c"/><path d="M268.075 39.376l2.732 1.098 9.021 3.667 6.44 2.6 13.787 5.586 21.639 8.762 22.18 8.967 70.849 28.447 14.698 5.875L456 115c-2.325 2.643-4.482 3.814-7.739 5.106l-2.935 1.178-3.209 1.259-3.392 1.352-10.85 4.293-6.867 2.732-32.194 12.642-54.085 21.509-19.74 8.042-16.837 6.902-16.676 6.805-6.258 2.578-8.667 3.524-2.54 1.09c-5.303 2.065-8.472 2.159-13.749-.005L248 193l-4.631-1.771-5.004-1.993-2.802-1.114-9.185-3.661-6.561-2.612-17.61-7.02-10.928-4.358-47.79-19.077-10.167-4.062-35.598-14.25-10.69-4.281-12.422-4.984-4.503-1.804-6.07-2.44-3.414-1.37C58 117 58 117 56 115l20.242-8.141 3.198-1.286 38.975-15.662 7.373-2.96 11.192-4.494 43.168-17.376 25.291-10.194 14.744-5.952 13.766-5.549 5.006-2.027 6.8-2.736 1.976-.816c7.854-3.095 12.901-1.501 20.344 1.569z" fill="#f3a811"/><path d="M454 296l4 1c19.9 10.841 35.282 31.265 42.156 52.586 7.666 26.12 5.508 53.338-7.156 77.414-12.625 22.228-33.059 38.323-57.305 46.027-26.338 6.933-53.082 3.932-76.82-9.34-22.771-13.757-37.891-34.573-44.977-60.035-1.221-4.965-1.804-9.548-1.898-14.652l-.074-2.156c-.855-26.129 5.558-50.655 23.574-70.282 1.801-1.891 3.64-3.727 5.5-5.562l2.242-2.238C372.972 280.72 418.609 278.075 454 296z" fill="#b7e28a"/><path d="M57.065 116.174c4.131 1.162 8.056 2.732 12.036 4.331l2.776 1.103 9.178 3.665 6.537 2.604 17.627 7.037 14.605 5.828L255 195c0 4.127-1.618 5.047-4.437 8-3.446 3.665-6.736 7.375-9.875 11.313-4.075 5.056-8.44 9.769-12.888 14.493-4.031 4.305-7.777 8.774-11.46 13.382-3.329 4.001-6.872 7.79-10.444 11.574-2.771 2.883-2.771 2.883-4.896 6.238-7.435-2.231-14.307-5.372-21.292-8.72-12.291-5.886-24.674-11.538-37.146-17.03l-39.75-18.062-48.414-21.74c-10.229-4.429-20.325-9.114-30.399-13.885l-4.695-2.217L8 173c.841-4.124 2.58-6.003 5.5-9.062 3.502-3.729 6.851-7.513 10.063-11.5 2.886-3.576 5.842-7.042 8.937-10.437 3.115-3.417 6.092-6.905 9-10.5L46 126l2.391-2.953 2.359-2.797 2.109-2.547C55 116 55 116 57.065 116.174z" fill="#ffdc65"/><path d="M457.208 116.76c2.361 1.633 4.085 3.52 5.98 5.677l2.387 2.715c3.119 3.662 6.151 7.39 9.176 11.129 2.185 2.64 4.442 5.186 6.75 7.719 3.909 4.289 7.576 8.732 11.215 13.25 3.066 3.69 6.33 7.178 9.633 10.656C504 170 504 170 504 173c-15.043 7.159-30.077 14.293-45.437 20.75-11.648 4.905-23.111 10.156-34.562 15.5L385 227l-47.792 21.787-4.792 2.225-9.86 4.682-2.926 1.419-2.4 1.2c-2.813.866-4.445.583-7.229-.314a58.11 58.11 0 0 1-5.25-5.375l-1.453-1.637c-3.767-4.276-7.346-8.7-10.918-13.14-2.69-3.22-5.511-6.286-8.379-9.348-4.471-4.775-8.674-9.686-12.762-14.797-3.223-3.892-6.684-7.538-10.172-11.195-2.046-2.483-2.958-4.525-4.066-7.508l44.433-17.696 9.365-3.729 74.452-29.61 2.214-.878 21.238-8.411 3.395-1.345 6.423-2.537 15.057-6.145 5.665-2.388 7.155-3.061 3.237-1.359 2.854-1.226C455 116 455 116 457.208 116.76z" fill="#fece43"/><path d="M256 36v160l-49.66-19.469-6.561-2.64-17.292-6.962-28.695-11.551-7.138-2.873-45.059-18.041-4.709-1.875-19.071-7.576-5.679-2.256-6.73-2.664-2.909-1.161-2.508-.993C58 117 58 117 56 115l84.733-34.056 7.516-3.018 1.872-.752 26.732-10.743 28.742-11.544 14.815-5.952 13.824-5.549 5.039-2.027 6.823-2.736 2.009-.816C250.912 36.693 252.946 36 256 36z" fill="#ffbc1c"/><path d="M459 340c3.177 2.348 4.79 3.765 5.461 7.715-.647 4.608-2.846 7.156-5.711 10.723l-1.636 2.107L452 367l-1.585 1.994-7.556 9.436c-3.034 3.774-5.99 7.603-8.932 11.448l-16.202 20.906-4.995 6.442-2.98 3.836-1.375 1.787c-2.555 3.276-3.863 4.863-8 5.651-8.878-1.315-17.19-13.129-23.404-19.344l-5.588-5.549-3.562-3.557-1.682-1.661c-4.99-5.019-4.99-5.019-6.138-8.39.13-3.704.256-6.085 2.625-9 3.654-1.538 5.574-1.14 9.375 0 6.413 4.711 11.919 10.798 17.5 16.438l2.492 2.506L398 406c3.996-1.816 5.746-3.947 8.375-7.5l2.664-3.551 1.442-1.932 8.269-10.705 3.594-4.617 5.488-7.048 3.633-4.666 3.542-4.546 7.99-10.384 1.388-1.829 3.628-4.816c3.361-4.068 5.802-5.132 10.988-4.406z" fill="#646c74"/></svg>