<svg xmlns="http://www.w3.org/2000/svg" xmlns:xlink="http://www.w3.org/1999/xlink" width="512" height="512" xmlns:v="https://vecta.io/nano"><path d="M249 3c4.737 3.474 4.737 3.474 6 6 2.314.233 2.314.233 4.375-2.312L262 4c6.155-5.069 13.25-4.628 20.863-4.222C298.532 1.407 311.363 12.226 322 23l3.438 4.688c4.521 5.243 10.394 6.853 16.74 9.092C365.722 45.113 387.469 57.477 407 73l2.715 2.133C460.07 115.446 491.551 173.16 500 237l.313 2.236c2.77 22.856 2.153 48.226-2.312 70.764l-.602 3.095C488.999 355.056 471.028 393.533 443 426l-2.027 2.363C430.919 439.803 420.133 450.771 408 460l-1.605 1.247c-51.764 40.102-118.094 57.317-182.935 49.234C171.639 503.222 123.722 480.25 86 444l-1.802-1.719C75.298 433.745 67.32 424.92 60 415l-2.512-3.32C35.238 381.847 20.748 346.487 14 310l-.492-2.536C2.177 246.77 17.456 180.516 51.859 129.652c29.099-42.135 69.487-75.564 118.016-92.715C180.686 33.064 186.187 29.149 193 20c13.136-13.579 37.213-28.147 56-17z" fill="#f8a272"/><path d="M331 309l9.625 1.75 2.484.477c6.34 1.325 11.157 3.173 14.891 8.773.125 2.688.125 2.688 0 5l2.805.594C420.34 338.662 420.34 338.662 436 359c2.168 3.42 4.04 6.955 5.875 10.563l1.54 2.996c3.636 7.221 6.897 14.56 9.898 22.067l1.185 2.924 1.053 2.74.927 2.397c.799 3.542.266 6.114-1.642 9.192l-1.461 1.759-1.626 1.983-1.749 2.068-1.799 2.164L443 426l-2.336 2.742C430.726 440.051 419.991 450.879 408 460l-1.605 1.247c-51.764 40.102-118.094 57.317-182.935 49.234C171.639 503.222 123.722 480.25 86 444l-1.802-1.719C75.306 433.753 67.3 424.927 60 415l-1.448-1.785-1.419-1.809-1.308-1.615c-1.499-3.255-.055-6.115 1.048-9.352 4.395-11.302 8.865-22.502 14.502-33.251l1.224-2.348C74.673 361.005 76.666 357.9 80 355l2.57 2.055C96.463 368.105 110.703 377.982 126 387l2.139 1.281C178.986 418.61 239.897 430.273 298 419l4.871-.863c6.438-1.141 12.816-2.427 19.129-4.137l-.621-2.965-.816-3.973-.809-3.902c-1.908-10.132-1.965-20.218-2.027-30.488l-.016-2.497-.061-13.05-.082-10.771-.081-13.064-.046-4.961-.024-6.927-.025-3.975c1.376-7.753 6.533-9.333 13.608-8.426z" fill="#fedd40"/><path d="M249 3c4.737 3.474 4.737 3.474 6 6 2.314.233 2.314.233 4.375-2.312L262 4c6.155-5.069 13.25-4.628 20.863-4.222 18.371 1.91 33.849 16.539 45.344 29.929C334.771 38.102 339.844 47.695 345 57l1.371 2.445c8.726 16.423 14.855 35.464 14.727 54.113l-.004 2.391-.031 7.488-.014 5.107L361 141l1.923.888c2.6 1.391 3.113 2.351 4.077 5.112 1.741 13.257-3.139 27.056-11.185 37.545-4.464 5.499-8.525 9.841-14.862 13.08-6.259 3.624-7.751 8.428-9.953 15.063l-2.492 6.738-1.249 3.366C320.81 239.229 311.05 253.202 299 266l-1.891 2.121C291.745 273.903 285.252 278.842 278 282c-11.617-.341-21.806-11.993-29.352-19.887C234 246.099 234 246.099 234 240l5.813-2.937 3.27-1.652c6.961-3.364 15.29-3.764 22.734-1.586 3.307 1.466 6.171 3.168 9.184 5.176 2.029.141 2.029.141 4-1 3.669-4.748 6.121-8.623 5.813-14.687-.483-3.581-.483-3.581-3.812-5.312-2.293-.316-2.293-.316-4.867-.291l-2.994-.039-3.229-.007-3.321-.02-6.958-.014-10.653-.079-6.756-.012-3.223-.044c-5.678-.088-5.678-.088-10.576 2.408L227 222l-2 2c-7.634-17.868-16.36-39.276-15-59 1-1 1-1 3.375-1.187C216 164 216 164 219 166c3.311-.283 3.311-.283 6-2 .448-3.851.117-5.775-1.687-9.25-2.499-2.971-3.573-3.9-7.312-4.75-2.691-.14-5.3-.092-8 0v-11c-6.244-.253-11.658.008-17.75 1.438-18.939 4.359-18.939 4.359-25 1.07-4.707-2.184-9.142-1.753-14.25-1.508l-.165-14.557-.062-4.931c-.226-14.497 1.401-27.654 6.414-41.387l.924-2.555C165.621 56.236 176.277 36.219 192 21l2.57-2.562C207.837 5.738 230.76-7.823 249 3z" fill="#fe7085"/><path d="M330 33c7.228 1.81 14.048 4.018 20.875 7l2.701 1.172C368.015 47.547 382.215 54.69 395 64l3 2.176c54.812 40.48 90.928 97.724 101.273 165.477L500 237l.313 2.236c2.77 22.856 2.153 48.226-2.312 70.764l-.602 3.095c-6.813 34.04-19.821 65.24-39.398 93.905-2.399-2.399-3.113-4.452-4.355-7.609l-1.378-3.458-1.454-3.683c-3.481-8.766-7.05-17.277-11.766-25.453-2.053-5.486.126-10.761 1.891-16.109 6.267-20.146 6.138-39.732-3.187-59-3.274-6.193-7.071-11.49-11.75-16.687l-1.793-2.109c-6.714-7.387-15.72-11.806-24.645-16.016-6.701-3.322-11.559-7.851-14.68-14.723-3.076-10.985-.983-21.827 2.211-32.492 2.91-11.753 1.156-22.312-4.824-32.652-3.324-5.216-6.85-9.685-11.207-14.07-4.173-4.422-4.906-7.527-4.965-13.512-.127-3.149-1.094-5.021-3.098-7.426l-2-1-.044-3.083-.218-11.529-.084-4.951c-.151-10.548-.963-20.188-3.654-30.437l-.601-2.434C353.749 78.132 349.897 68.566 345 59l-.982-1.947c-3.787-7.475-7.773-14.539-12.768-21.295C330 34 330 34 330 33zm-148 1l-1.906 2.754c-15.24 22.259-28.119 48.377-28.27 75.883l-.072 4.936-.078 7.702-.1 7.487.006 2.323c-.082 3.575-.24 5.503-2.553 8.305L147 145c-1.259 2.519-1.071 4.375-1.125 7.188-.454 5.466-1.848 7.518-5.91 11.023-7.503 6.832-15.395 19.585-16.203 29.801-.142 7.044.299 13.139 2.238 19.926 2.959 10.555 4.09 21.83-.809 32.02-5.037 8.638-12.26 12.134-21.066 16.293C97.372 264.508 92.208 268.633 87 274l-1.887 1.859c-13.894 14.613-18.7 33.769-18.402 53.504.367 8.784 2.575 17.612 5.988 25.695 1.8 4.776 1.352 8.389-.602 13.134-1.168 2.527-2.404 5.01-3.66 7.495C63.399 385.924 59.093 396.355 55 407c-22.265-26.96-34.718-63.03-41-97l-.492-2.536C2.177 246.77 17.456 180.516 51.859 129.652 67.276 107.328 154.271 20.135 182 34z" fill="#543d5a"/><path d="M255 83c3.106 2.616 4.342 5.653 6 9.313 5.235 10.991 13.098 20.438 22 28.688l3 3-2 1.625c-2.241 2.252-2.241 2.252-2.5 5.375.621 3.729 1.544 4.699 4.5 7 2.912.501 2.912.501 6.129.285l3.639-.08 3.795-.143c8.137-.287 15.291-.312 23.093 2.212 3.737 1.157 7.453 1.503 11.344 1.726l2.57.16c5.482.188 8.519-.598 13.43-3.16 5.322-.84 9.476-.051 14 3 3.971 5.493 3.686 10.453 3 17-2.906 13.81-9.851 27.048-21 36l-5.047 2.625c-6.259 3.624-7.751 8.428-9.953 15.063l-2.492 6.738-1.249 3.366C320.81 239.229 311.05 253.202 299 266l-1.891 2.121C291.745 273.903 285.252 278.842 278 282c-11.617-.341-21.806-11.993-29.352-19.887C234 246.099 234 246.099 234 240l5.813-2.937 3.27-1.652c6.961-3.364 15.29-3.764 22.734-1.586 3.307 1.466 6.171 3.168 9.184 5.176 2.029.141 2.029.141 4-1 3.669-4.748 6.121-8.623 5.813-14.687-.483-3.581-.483-3.581-3.812-5.312-2.293-.316-2.293-.316-4.867-.291l-2.994-.039-3.229-.007-3.321-.02-6.958-.014-10.653-.079-6.756-.012-3.223-.044c-5.678-.088-5.678-.088-10.576 2.408L227 222l-2 2c-7.634-17.868-16.36-39.276-15-59 1-1 1-1 3.375-1.187C216 164 216 164 219 166c3.311-.283 3.311-.283 6-2 .448-3.851.117-5.775-1.687-9.25-2.499-2.971-3.573-3.9-7.312-4.75-2.691-.14-5.3-.092-8 0v-11l3.797-.078 4.953-.172 2.5-.043c4.992-.191 4.992-.191 9.297-2.57 2.012-2.959 2.026-4.625 1.453-8.137-1.286-1.704-2.615-3.376-4-5l2.055-1.695C240.543 110.546 248.101 97.838 255 83z" fill="#fab888"/><path d="M144 158c2 1 2 1 2.859 3.555l.891 3.32c3.488 11.661 9.148 20.927 18.25 29.125 1.855.996 3.731 1.955 5.625 2.875 8.045 4.696 9.621 14.168 12.432 22.489 4.423 12.363 11.905 28.065 21.562 37.081 3.843 4.599 2.997 10.264 2.869 15.953l-.021 3.606-.154 11.37-.068 7.723L208 314l-2.42.515-19.66 4.21-9.413 2.018c-55.489 8.94-55.489 8.94-100.007 38.693L75 362c-9.885-14.827-10.886-35.801-7.812-52.812 4.11-17.934 14.275-34.137 29.313-44.992 5.356-3.313 11.049-6.014 16.738-8.703 5.032-2.719 8.09-5.343 10.512-10.555l1.234-2.598c4-9.216 2.706-19.964.016-29.402-3.467-12.421-3.389-23.47 3-34.937 4.461-7.406 10.101-13.713 16-20z" fill="#fe4055"/><path d="M367 158c9.805 7.302 19.752 20.757 22 33 .599 7.909.322 14.698-2 22.313-2.91 9.929-4.329 21.626-.062 31.375 4.79 7.741 12.042 11.393 20 15.188 7.119 3.398 12.587 7.373 18.063 13.125l2.172 2.219c12.365 13.202 19.263 30.33 19.141 48.406l-.015 2.635c-.228 12.734-3.316 24.063-8.298 35.74-1.939-1.873-3.766-3.68-5.359-5.859-12.483-16.971-42.824-21.945-62.051-27.209l-2.074-.568-5.653-1.535C360 326 360 326 358 325l-.75-3.312c-1.585-4.675-2.958-5.35-7.25-7.687-3.084-.994-6.195-1.64-9.375-2.25l-2.461-.523c-5.142-1.038-9.919-1.556-15.164-1.227-2.745 2.095-4.079 4.118-6 7l-14-3-.439-22.095-.164-7.507-.178-10.828-.125-3.357c-.005-8.748 3.012-12.981 8.906-19.214 8.66-12.245 15.704-26.547 20.273-40.817 2.387-7.388 5.003-11.055 12.052-14.765 11.98-6.349 17.405-20.356 21.676-32.418l2-5z" fill="#fe4155"/><path d="M208 139v11l2-1c4.503-.044 8.08.433 11.938 2.813 2.959 3.139 3.935 4.939 4.375 9.25C226 164 226 164 224.875 165.938c-2.827 1.602-4.824.858-7.875.063l-1-1c-1.666-.041-3.334-.043-5 0-.223 6.846.513 12.949 2 19.625l.654 2.975c3.578 18.49 3.578 18.49 12.346 34.4l1.797-2.458c3.351-3.321 6.728-3.164 11.265-3.236l3.188.031 3.306-.014 6.909.027 10.566-.032 6.719.02 3.188-.031c4.818.077 7.283.129 11.265 3.021C286 222 286 222 286 225.438c-1.626 5.791-4.107 9.999-8 14.563-2.954-.634-5.39-1.6-8.062-3-7.313-3.818-15.765-4.514-23.754-2.176-3.307 1.466-6.171 3.168-9.184 5.176h-3c5.74 8.988 11.547 17.315 19 25l1.883 2.105C260.24 272.9 266.745 277.841 274 281c10.541-.244 19.372-9.929 26.234-17.094L302 262c1.912 5.421-.756 10.02-3 15-8.575 16.353-23.401 25.285-40.496 30.977-5.778 1.688-11.585 2.942-17.504 4.023l-2.961.59c-10.897 1.959-21.997 2.062-33.039 2.41l3-1 .067-22.412.039-7.611c.785-18.396.785-18.396-7.823-33.78L198 248c-1.547-2.169-1.547-2.169-2.785-4.223l-1.156-1.912-1.122-1.928-1.247-2.131c-5.756-10.119-10.294-20.954-13.566-32.119-1.809-5.202-4.775-6.789-9.535-9.25-12.752-7.078-19.156-22.174-23.203-35.449-1.089-5.598-1.789-12.618 1.363-17.613 2.615-2.761 4.608-4.145 8.398-4.676l2.227-.012 2.211-.051c2.414.363 2.414.363 5.266 1.891 7.553 3.533 17.554.714 25.398-1.152 6.311-1.488 11.354-1.326 17.75-.375z" fill="#f8a272"/><path d="M79 355c3.551 1.978 6.636 4.268 9.755 6.87C103.538 374.182 120.021 384.04 137 393l2.013 1.073c28.156 14.918 58.912 24.468 90.576 27.94l2.763.312 2.432.253c2.36.45 4.129 1.254 6.216 2.423l-2.203.332c-25.198 3.974-47.981 13.877-63.786 34.62-7.175 9.877-12.281 20.839-17.01 32.048-22.28-10.125-42.366-22.069-61-38l-2.34-2C81.868 440.762 70.067 428.743 60 415l-1.444-1.781-1.419-1.809-1.31-1.617c-1.502-3.257-.058-6.115 1.046-9.354C70.486 365.431 70.486 365.431 79 355z" fill="#fec839"/><path d="M358 325c10.055 2.288 20.019 4.696 29.875 7.75l3.34 1.035c20.441 6.476 38.702 13.069 49.212 32.931l1.448 2.847 1.54 2.996c3.636 7.221 6.897 14.56 9.898 22.067l1.185 2.924 1.053 2.74.927 2.397c.799 3.542.266 6.114-1.642 9.192l-1.461 1.759-1.626 1.983-1.749 2.068-1.799 2.164L443 426l-2.336 2.742C426.397 444.977 410.476 458.383 393 471c-4.28-1.515-6.238-4.668-8.625-8.312l-1.302-1.974c-22.006-34.472-25.495-71.22-25.198-111.151l.027-7.201L358 325z" fill="#fedc41"/><path d="M351 69c11.766 7.078 21.953 15.682 32 25l1.793 1.629C390.92 101.436 395.922 108.285 401 115l1.945 2.566c4.961 6.818 9.022 14.145 13.031 21.548l2.684 4.842c20.392 38.01 22.196 87.028 10.328 127.801L428 275c-3.173-1.395-5.147-3.039-7.562-5.5-5.223-4.796-11.196-7.743-17.522-10.822-7.855-3.893-14.323-8.356-18.033-16.525-3.076-10.985-.983-21.827 2.211-32.492 2.91-11.753 1.156-22.312-4.824-32.652-3.324-5.216-6.85-9.685-11.207-14.07-4.173-4.422-4.906-7.527-4.965-13.512-.127-3.149-1.094-5.021-3.098-7.426l-2-1-.044-3.083-.218-11.529-.084-4.951c-.198-13.828-2.154-26.247-6.279-39.5-1.314-4.283-2.599-8.517-3.375-12.937zm-192 1l2 1-.611 1.845-2.764 8.468-.961 2.9c-4.485 13.874-5.012 26.829-5.045 41.281l-.08 7.408.015 2.285c-.067 3.547-.227 5.417-2.526 8.193L147 145c-1.259 2.519-1.071 4.375-1.125 7.188-.454 5.466-1.848 7.518-5.91 11.023-7.503 6.832-15.395 19.585-16.203 29.801-.142 7.044.299 13.139 2.238 19.926 2.959 10.555 4.09 21.83-.809 32.02-5.037 8.638-12.26 12.134-21.066 16.293-5.925 2.822-10.445 6.278-15.137 10.93C87 274 87 274 84 275c-2.932-10.599-5.754-21.045-7-32l-.336-2.828c-4.756-47.042 9.419-94.258 38.889-131.114 3.368-4.124 6.858-8.126 10.447-12.058l2.262-2.48C137.316 85.063 148.182 77.303 159 70z" fill="#45304c"/><path d="M331 309l9.625 1.75 2.484.477c6.34 1.325 11.157 3.173 14.891 8.773.265 2.37.265 2.37.287 5.208l.041 3.232.016 3.513.044 3.656.112 11.641c.355 42.78 2.908 86 31.199 120.719L391 470c-1.167 3.502-1.746 3.73-4.832 5.488l-2.404 1.384-2.577 1.44-2.608 1.476L371 484l-1.993 1.113c-8.67 4.81-8.67 4.81-12.496 5.032-4.094-1.866-5.643-5.399-7.824-9.207l-1.45-2.463C332.899 453.826 322.984 427.317 319 399l-.517-3.658c-.819-7.522-.711-15.112-.757-22.67l-.016-2.497-.061-13.05-.082-10.771-.081-13.064-.046-4.961-.024-6.927-.025-3.975c1.376-7.753 6.533-9.333 13.608-8.426z" fill="#afc728"/><path d="M179 210c2.115 2.115 2.751 3.517 3.848 6.262l1.07 2.619 1.145 2.806c6.226 15.399 6.226 15.399 16.203 28.438 7.78 8.072 7.654 15.672 7.593 26.458l-.296 11.167-.123 7.641L208 314l-2.423.516-9.89 2.109-2.25.48-20.992 4.595-3.632.82-6.84 1.563c-5.996 1.358-11.848 2.372-17.973 2.917-3.787-14.02-5.986-29.654 1-43l1.402-2.687c3.576-6.155 7.954-10.866 13.035-15.753 9.81-9.522 18.92-21.232 19.721-35.362.037-3.069.016-6.13-.034-9.198l-.027-3.215L179 210z" fill="#e80054"/><path d="M333 207c.951 2.854 1.068 4.29.922 7.211-.742 20.569 7.295 34.377 19.266 50.539C365.676 281.695 371.18 297.955 369 319c-.54 2.726-1.229 5.326-2 8l-9-2-.625-3.25c-1.712-4.668-3.054-5.397-7.375-7.75-3.084-.994-6.195-1.64-9.375-2.25l-2.461-.523c-5.142-1.038-9.919-1.556-15.164-1.227-2.745 2.095-4.079 4.118-6 7l-14-3-.439-22.095-.164-7.507-.178-10.828-.125-3.357c-.005-8.748 3.012-12.981 8.906-19.214 9.44-13.348 16.109-28.816 22-44z" fill="#e80154"/><path d="M202 12l2 2-1.285 1.223c-15.405 15.947-17.176 38.84-16.922 59.879.361 13.809 3.571 26.343 9.322 38.91.885 1.989.885 1.989 1.524 4.042.753 2.29.753 2.29 3.361 4.947 4.498.928 8.924.795 13.5.688l7.344-.051 3.287-.072c3.571.541 4.703 1.599 6.869 4.435.725 3.786.368 5.406-1.664 8.684-3.755 3.554-8.544 2.727-13.4 2.609l-3.873-.168c-9.083-.348-17.11.017-25.971 2.145-3.734.882-7.267 1.328-11.092 1.605l-3.625.305C168 143 168 143 165.25 141.508c-4.707-2.184-9.142-1.753-14.25-1.508l-.165-14.557-.062-4.931c-.226-14.497 1.401-27.654 6.414-41.387l.924-2.555C167.454 51.272 181.538 29.685 202 12z" fill="#fe4155"/><path d="M358 325c10.055 2.288 20.019 4.696 29.875 7.75l3.34 1.035C424.528 344.339 424.528 344.339 432 355c-14.581 14.124-51.418 45-72 45-1.826-16.851-2.251-33.499-2.125-50.437l.027-7.201L358 325z" fill="#f8a372"/><path d="M118 337c2.043 2.152 2.043 2.152 4.188 4.938 3.714 4.706 7.563 9.201 11.602 13.629l8.582 9.719c1.533 1.809 1.533 1.809 3.629 2.715v2l1.789.785c2.378 1.307 3.755 2.66 5.586 4.652 5.175 5.299 10.931 9.736 16.827 14.195l4.935 3.836C193.761 407.58 216.63 419.014 240 422v1c-55.096 3.412-115.034-30.455-156-64l-4-3c2.529-6.438 8.759-9.128 14.625-12l2.132-1.051c16.618-8.064 16.618-8.064 21.243-5.949z" fill="#ef8e5e"/><path d="M331 309l9.625 1.75 2.484.477c6.34 1.325 11.157 3.173 14.891 8.773.278 2.828.278 2.828.319 6.307l.06 3.943.035 4.262.059 4.359.128 11.467.141 11.703L359 385l-2-4-1.625 2.688c-2.654 4-6.048 7.149-10.375 9.313-7.251.719-13.399.893-19.41-3.555-2.156-1.96-3.943-4.044-5.59-6.445l-1 7h-1l-.259-29.468-.118-13.684-.097-13.208-.054-5.037-.039-7.059-.054-2.099c.04-3.786.565-5.372 2.926-8.39 3.601-2.744 6.399-2.606 10.696-2.055z" fill="#ccdd3d"/><path d="M208 261l5 5c12.586 11.815 27.339 20.667 45.047 20.246 18.361-1.53 31.601-11.288 43.953-24.246 1.912 5.421-.756 10.02-3 15-8.575 16.353-23.401 25.285-40.496 30.977-5.778 1.688-11.585 2.942-17.504 4.023l-2.961.59c-10.897 1.959-21.997 2.062-33.039 2.41l3-1v-53z" fill="#ef8c5e"/><path d="M157.375 138.688l2.211-.051c3.357.505 5.556 1.518 8.414 3.363.877 2.913.877 2.913 1.066 6.484l.135 1.953.248 4.155c.19 3.629.473 7.25.761 10.873l.171 2.196c.786 9.321 2.892 18.348 5.206 27.395C176 197 176 197 176 200c-4.96-1.304-8.257-3.472-11.937-6.937l-1.582-1.481c-10.191-9.86-17.446-24.132-17.793-38.457.046-5.441.566-8.171 4.313-12.125 2.86-1.729 5.044-2.295 8.375-2.312z" fill="#ee8d5d"/><path d="M361.313 140.188c3.043 2.052 4.063 3.55 5.688 6.813 2.049 12.555-2.987 25.747-10 36-5.367 6.882-11.144 13.001-19 17h-2c.846-5.476 1.742-10.928 2.953-16.336 2.438-11.075 3.715-21.813 4.012-33.17.14-2.945.306-5.636 1.035-8.494 5.317-4.19 11.168-4.015 17.313-1.812z" fill="#f8a272"/><path d="M235.965 216.58l2.984-.048 3.204-.001 3.31-.023 6.927-.009 10.593-.085 6.732-.008 3.198-.05c4.832.046 7.295.069 11.292 2.966C286 222 286 222 286 225.438c-1.626 5.791-4.107 9.999-8 14.563-2.954-.634-5.39-1.6-8.062-3-7.313-3.818-15.765-4.514-23.754-2.176-3.307 1.466-6.171 3.168-9.184 5.176-2.522-.214-3.642-.632-5.414-2.453-5.66-8.399-5.66-8.399-5.461-14.172.875-3.375.875-3.375 2.619-5.06 2.632-1.535 4.189-1.706 7.22-1.735z" fill="#58405c"/><path d="M394 410c10.558 7.966 17.868 24.456 21 37 .473 3.59.473 3.59 0 7-1.865 2.113-3.341 3.501-5.562 5.125l-1.662 1.289L403 464l-2.215 1.75c-3.276 2.523-4.515 3.25-8.785 3.25l.5-3.375c1.7-15.872.63-30.691-5.703-45.5-1.069-2.851-1.322-5.127-.797-8.125 3.247-2.164 4.234-2.519 8-2z" fill="#fec83a"/><path d="M121.938 410l3.063 1c1.264 5.055.613 7.955-1.312 12.75-5.718 15.101-5.777 30.317-3.687 46.25-5.469-1.876-9.593-5.265-14.102-8.773-2.718-2.16-2.718-2.16-5.047-3.578-1.664-1.086-1.664-1.086-3.852-3.648-1.851-10.873 6.313-24.891 12.215-33.543L111 418l1.754-2.488c4.255-5.512 4.255-5.512 9.184-5.512z" fill="#feb432"/><path d="M228.629 362.789L235 368v1h-77c3.462-1.731 6.242-2.689 9.953-3.621l3.543-.892 3.753-.924 3.828-.946c36.278-8.861 36.278-8.861 49.551.172z" fill="#ef8e5e"/><path d="M255.75 175.25c5.331 1.23 7.367 5.336 10.25 9.75l1.59 2.391c2.199 3.582 3.41 5.784 3.41 10.047-1 2.563-1 2.563-4 4.563-3.631.459-7.281.37-10.937.375l-3.037.074c-7.273.029-7.273.029-10.717-2.16-1.644-2.876-1.939-4.018-1.309-7.289 1.358-2.51 2.719-4.778 4.313-7.125l1.225-1.879c5.029-7.605 5.029-7.605 9.213-8.746z" fill="#f9a373"/><path d="M206.156 123.469l3.598-.016 3.746.047 3.746-.047 3.598.016 3.287.014c3.528.637 4.71 1.704 6.869 4.518.733 3.826.398 5.398-1.754 8.652-4.235 4.009-10.297 3.066-15.746 2.973l-3.418.059c-9.183-.054-9.183-.054-12.328-3.031-2.152-3.254-2.487-4.826-1.754-8.652 3.058-3.985 5.223-4.511 10.156-4.531z" fill="#e80354"/><path d="M297.938 123.438l3.576-.072c9.641.016 9.641.016 12.799 2.943C316 129 316 129 316.063 132.625c-1.185 3.764-1.739 4.461-5.062 6.375-4.122.648-8.27.509-12.437.5l-3.432.086c-9.27.022-9.27.022-12.381-2.926-2.144-3.259-2.483-4.834-1.75-8.66 4.504-5.807 10.144-4.625 16.938-4.562z" fill="#e80355"/><path d="M270.156 235.844c2.454 1.539 4.695 3.215 6.844 5.156l-3.687 2.375-2.074 1.336c-7.214 4.155-15.108 4.356-23.238 3.289-5.187-1.665-9.287-4.006-13-8l3.625-2.375 2.039-1.336c8.979-4.955 20.391-5.2 29.492-.445z" fill="#fc4255"/><path d="M317 359c1 1 1 1 1 10h-41c3.602-3.602 5.888-5.798 10.063-8.25l2.535-1.516c8.332-4.281 18.665-2.407 27.402-.234z" fill="#ef8e5e"/><g fill="#5a425c"><use xlink:href="#B"/><use xlink:href="#B" x="-85"/></g><path d="M333 207c1.223 3.67.88 6.34.563 10.188l-.309 3.855L333 224h-1l-.437-3.312c-.445-3.619-.445-3.619-1.562-6.687a110.36 110.36 0 0 1 3-7z" fill="#ee1957"/><defs ><path id="B" d="M304 150c3.441 2.123 5.742 4.112 7 8 .323 3.166.49 5.157-1.125 7.938-2.827 1.602-4.824.858-7.875.063l-1-1c-3.722-.294-4.778-.148-8 2-3.322-.324-4.608-.608-7-3-.525-3.854-.146-5.724 1.688-9.187 4.866-5.918 9.063-6.76 16.313-4.812z"/></defs></svg>