<svg xmlns="http://www.w3.org/2000/svg" width="512" height="512" xmlns:v="https://vecta.io/nano"><path d="M218.637-.227l5.354-.001 14.471.025 15.147.016 28.654.043 32.634.043L382 0v40l5 2c11.609 6.526 21.886 14.375 32 23l2.324 1.961c1.92 1.651 3.802 3.336 5.676 5.039l1.472 1.323C435.049 79.245 441.369 85.153 447 92l2.219 2.559c27.94 32.582 47.031 72.259 55.594 114.254l.591 2.885c2.993 15.584 3.979 31.085 3.909 46.927l-.006 2.64c-.049 14.098-.759 27.842-3.307 41.735l-.488 2.783C498.829 342.941 483.411 378.634 461 409l-1.327 1.802c-7.214 9.7-15.286 18.508-23.673 27.198l-2.727 2.852C427.545 446.725 421.446 451.932 415 457l-2.918 2.363C390.232 476.727 365.344 489.93 339 499l-2.355.834c-25.796 9.082-52.481 12.584-79.707 12.478l-3.021-.007c-14.501-.05-28.663-.406-42.916-3.306l-3.024-.586C149.796 496.916 94.463 465.395 58 418l-2.34-2.895C20.593 371.064 2.442 315.42 2.688 259.375l.006-2.639C2.77 234.874 5.466 214.164 11 193l.667-2.561C21.601 153.193 41.295 118.575 67 90l1.5-1.687C79.604 75.846 91.674 65.042 105 55l1.727-1.309C122.441 41.856 139.983 32.675 158.063 25c5.031-2.281 7.859-4.664 11.215-8.984 12.555-14.69 31.495-16.322 49.36-16.243z" fill="#febd81"/><path d="M346 273c19.019 13.486 31.689 33.379 37 56 .125 2.961.125 2.961 0 5l3.438.125c19.219 2.183 36.454 13.107 48.848 27.535 12.354 16.162 18.853 35.773 17.379 56.204-1.727 8.153-8.482 13.374-14.652 18.452-2.658 2.224-4.952 4.658-7.324 7.184-4.94 4.874-10.236 9.214-15.687 13.5l-2.918 2.363C390.232 476.727 365.344 489.93 339 499l-2.355.834c-25.796 9.082-52.481 12.584-79.707 12.478l-3.021-.007c-14.501-.05-28.663-.406-42.916-3.306l-3.024-.586c-54.026-10.677-101.459-37.742-139.209-77.58-1.725-1.837-1.725-1.837-3.543-3.416-3.698-3.566-4.64-6.311-4.985-11.446-.014-2.303.012-4.607.074-6.91l.056-3.646C60.94 386.855 67.829 371.948 80 358l1.574-1.863c11.957-13.102 28.854-18.917 45.715-22.34 3.51-.592 3.51-.592 5.711-1.797.612-2.354 1.132-4.684 1.625-7.062 4.229-18.337 15.367-35.307 29.418-47.746L166 276c3.827 1.276 4.542 2.837 6.813 6.125C184.393 298.405 200.807 311.602 220 318l.028 2.947.179 10.976.063 4.722c.122 12.757 1.231 24.257 10.338 34.094 6.732 6.496 14.913 10.451 24.328 10.824 10.634-.529 20.633-3.713 28.063-11.562 8.562-11.197 9.478-23.034 9.688-36.625l.104-4.488L293 318l3.043-1.434C317.382 306.326 333.098 292.789 346 273z" fill="#fe3b3c"/><path d="M163 25l-1.68 3.184-2.195 4.254-1.105 2.084-1.074 2.1-.984 1.888c-3.637 9.421-3.252 19.028-3.236 28.949l-.015 5.3-.011 14.344-.009 12.016-.005 28.385-.028 29.169-.02 25.13-.015 14.969.002 14.105-.009 5.136c-.068 15.136 1.283 29.7 7.385 43.738l1.039 2.531c1.42 3.403 2.793 6.465 4.836 9.547C167 274 167 274 166.375 276.16 165 278 165 278 162 280.438c-14.326 11.883-24.348 31.29-27.707 49.367C133 333 133 333 129.98 334.418l-3.793.77-4.098.926-2.083.444c-19.631 4.331-35.828 14.922-47.171 31.63C62.482 384.762 61.117 400.823 61 420 22.495 382.089 3.137 319.904 2.678 266.886l.009-7.511.006-2.639C2.77 234.874 5.466 214.164 11 193l.667-2.561C21.601 153.193 41.295 118.575 67 90l1.5-1.687C79.604 75.846 91.674 65.042 105 55l1.727-1.309C120.489 43.326 135.526 35.484 151 28l2.898-1.422c5.723-2.704 5.723-2.704 9.102-1.578z" fill="#73c7ef"/><path d="M382 40c13.941 4.985 25.895 15.531 37 25l2.324 1.961c1.92 1.651 3.802 3.336 5.676 5.039l1.472 1.323C435.049 79.245 441.369 85.153 447 92l2.219 2.559c27.94 32.582 47.031 72.259 55.594 114.254l.591 2.885c2.993 15.584 3.979 31.085 3.909 46.927l-.006 2.64c-.049 14.098-.759 27.842-3.307 41.735l-.488 2.783C498.288 345.948 480.681 388.405 453 419l-2 1-.012-2.041c-.258-24.182-4.501-44.562-22.003-62.201C416.004 343.389 400.1 338.191 383 334l-.594-2.902C377.282 307.686 364.676 288.061 346 273l1.355-3.086 1.832-4.289.885-2c7.132-16.871 8.675-32.334 8.678-50.5l.082-9.752.03-6.004c.028-6.83.485-13.571 1.138-20.369 5.873.559 9.837 2.613 13.813 7 2.489 4.192 2.52 8.172 2.188 13-1.5 3.438-1.5 3.438-3 6 5.428-3.412 7.845-8.127 10-14 .669-4.029.703-7.924.625-12l.059-3.078c-.046-7.203-1.48-12.981-5.684-18.922-4.197-3.713-8.369-5.84-13.667-7.578l-2.458-.809L360 146l-.57-22.272-.26-10.344c-.143-3.971-.196-7.941-.244-11.915l-.172-3.719c-.006-8.473-.006-8.473 3.628-12.176 2.936-2.083 2.936-2.083 5.859-3.778 6.847-4.455 10.431-12.794 12.271-20.537C381.567 54.22 381.773 47.105 382 40z" fill="#afe5fe"/><path d="M208.473-.12l2.253-.003 7.457.009h5.352l14.521.013 15.179.008 28.74.021 32.72.022L382 0l.207 22.013.095 10.226.089 11.804.063 3.641c.003 10.331-1.779 20.811-8.141 29.253l-1.824 2.527C370 82 370 82 367.827 83.093c-2.726 1.395-4.696 2.695-6.827 4.907-1.324 4.412-1.189 8.695-1.098 13.273l-.029 3.875.045 10.15-.002 10.377L360 146l1.875.394 2.458.529 2.437.519c6.139 1.534 10.862 5.49 14.23 10.745 3.43 6.038 3.285 11.577 3.375 18.375l.113 3.174c.091 8.155-1.623 14.628-6.924 20.985-1.377 1.404-1.377 1.404-3.565 3.279l-2-1 1.5-2.562c2.262-5.184 2.012-8.761.375-14.125-3.209-5.669-7.783-7.572-13.875-9.312v12c-4.252-.25-6.476-.569-9.812-3.312-3.764-4.625-4.437-7.481-4.443-13.485l-.011-2.047-.008-4.392-.029-6.979-.077-19.841-.065-12.152-.007-4.603c.034-10.139-.078-21.395-7.547-29.19-2.854-.608-2.854-.608-6.178-.515l-3.921-.039-4.312.02-4.534-.026-12.33-.011c-3.434.005-6.868-.002-10.302-.009a5847.94 5847.94 0 0 0-24.324.003c-8.351.017-16.701.001-25.052-.031l-21.529-.025a2158.85 2158.85 0 0 1-12.848-.018c-4.034-.018-8.068-.012-12.103.012a368.13 368.13 0 0 1-4.424-.011c-8.696-.069-15.933.395-23.145 5.65-5.274 5.461-6.118 10.359-6.158 17.693l-.015 2.012-.026 4.313-.053 6.836-.149 19.433-.101 11.899-.026 4.523-.055 6.339-.025 3.638c-.578 4.884-2.242 8.164-5.704 11.627-2.982 1.872-5.238 2.207-8.687 2.688l-.155-53.748-.071-24.959-.056-21.768-.035-11.514-.022-10.864-.034-5.833c.037-10.659 1.756-20.565 6.998-29.939l1.052-1.908C168.01 13.888 180.226 6.063 196 1c4.167-1.037 8.204-1.138 12.473-1.12z" fill="#373c41"/><path d="M346 273c19.019 13.486 31.689 33.379 37 56 .125 2.961.125 2.961 0 5l4 1h-3l.035 3.402c.142 18.35-1.798 33.69-15.062 47.746C354.786 399.54 332.538 408.139 313 408l.02 2.441.135 22.777.071 11.71.058 11.301.033 4.311.023 6.04.02 3.472c-.4 3.272-1.016 4.66-3.361 6.949-3 .438-3 .438-6 0-2.037-1.545-2.861-2.721-4-5-.091-1.971-.118-3.945-.114-5.918v-3.761l.016-4.078.004-4.162.025-10.959.02-11.18L300 410l-2.611.214a305.3 305.3 0 0 1-24.225.919l-3.524.003c-2.439.001-4.877-.001-7.316-.005a3469.79 3469.79 0 0 0-11.051.006c-12.136.003-24.174-.168-36.273-1.137l.02 2.365.135 22.07.071 11.346.058 10.951.033 4.177.023 5.853.02 3.365c-.406 3.236-1.027 4.616-3.361 6.873-3.5.5-3.5.5-7 0-2.373-2.279-2.959-3.667-3.361-6.949l.02-3.472.001-3.943.047-4.246.013-4.355.074-11.442.06-11.684L202 408l-2.013-.18C180.742 406.012 158.06 399.15 145 384c-6.959-9.135-12.16-20.004-12.098-31.641l.01-3.242.025-3.367.014-3.414L133 334l-2-1 2-1c.612-2.354 1.132-4.684 1.625-7.062 4.229-18.337 15.367-35.307 29.418-47.746L166 276c3.827 1.276 4.542 2.837 6.813 6.125C184.393 298.405 200.807 311.602 220 318l.028 2.947.179 10.976.063 4.722c.122 12.757 1.231 24.257 10.338 34.094 6.732 6.496 14.913 10.451 24.328 10.824 10.634-.529 20.633-3.713 28.063-11.562 8.562-11.197 9.478-23.034 9.688-36.625l.104-4.488L293 318l3.043-1.434C317.382 306.326 333.098 292.789 346 273z" fill="#fe3c3d"/><path d="M133 334l.028 1.997c.345 19.364 1.876 34.753 14.972 50.003 15.225 13.365 34.595 18.282 54 22 .324 5.761.559 11.517.714 17.285l.267 5.865c.969 17.144.969 17.144-3.743 22.647-2.659 2.601-5.567 4.736-8.597 6.879-10.399 8.39-16.748 24.049-20.64 36.323-5.638-.583-10.228-2.655-15.312-5l-2.678-1.228C123.852 477.726 99.269 460.557 77 439l-1.534-1.483C72.594 434.724 69.75 431.913 67 429l-1.585-1.385c-3.763-3.629-4.844-6.412-5.177-11.642-.014-2.303.012-4.607.074-6.91l.056-3.646C60.94 386.855 67.829 371.948 80 358l1.574-1.863C94.102 342.41 114.603 333.625 133 334z" fill="#db1428"/><path d="M198.3 91.353l4.566-.027 12.315.002 12.915-.007 21.662.027 25.041-.009 21.532-.013 12.847-.008 12.061.024 4.426-.006 6.037.028 3.413.006C338 92 338 92 340.331 94.352 342 97 342 97 343 100l-1.877.007-45.325.228-21.919.111-19.116.102-10.112.049-11.317.07-3.348-.004c-11.871.143-22.422 3.325-31.252 11.546-6.32 6.788-10.83 13.944-10.882 23.402l-.022 2.726-.008 2.969-.02 3.146-.041 10.32-.012 3.572-.045 18.748-.085 19.265-.038 14.892-.035 7.094C187.318 249.166 196.003 276.56 218 299c11.168 10.93 30.097 24.825 46.5 25.563 9.75-.776 19.306-3.344 28.5-6.562l.22 13.013.082 4.41c.306 13.202-1.403 25.202-10.302 35.577-7.608 7.762-17.315 11.028-28.062 11.563-10.214-.431-18.459-4.967-25.738-11.953-6.696-7.945-9.369-16.265-9.297-26.438l.004-2.27.031-7.152.014-4.859L220 318l-2.304-.418C207 315.273 197.279 307.744 189 301l-2.207-1.742c-18.798-15.498-31.989-40.984-34.626-65.138-.637-8.113-.363-16.303-.292-24.432l.027-6.037L152 189l1.898-.802 2.477-1.069 2.461-1.052c2.578-1.282 3.844-2.518 5.164-5.076 1.13-3.389 1.138-5.99 1.158-9.563l.015-2.007.026-4.312.053-6.837.149-19.438.101-11.895.026-4.521.055-6.346.025-3.64c.68-5.968 3.055-11.215 7.392-15.441 8.03-5.542 15.823-5.718 25.3-5.647z" fill="#fe955a"/><path d="M163 25l-1.68 3.184-2.195 4.254-1.105 2.084-1.074 2.1-.984 1.888c-3.637 9.421-3.252 19.028-3.236 28.949l-.015 5.3-.011 14.344-.009 12.016-.005 28.385-.028 29.169-.02 25.13-.015 14.969.002 14.105-.009 5.136c-.068 15.136 1.283 29.7 7.385 43.738l1.039 2.531c1.42 3.403 2.793 6.465 4.836 9.547C167 274 167 274 166.445 276.109c-1.655 2.165-3.35 3.565-5.57 5.141l-2.195 1.578L157 284c-29.515-33.478-51.671-74.73-59.625-118.937l-.641-3.555C91.85 133.511 91.749 105.208 95 77l.26-2.471c.245-2.205.542-4.396.865-6.591l.508-3.598c3.033-7.409 11.125-11.809 17.617-16.09l2.332-1.542c11.636-7.575 23.81-14.277 36.481-19.958l2.002-.909c4.565-1.964 4.565-1.964 7.935-.841z" fill="#aee5fe"/><path d="M322.5 302.75c7.77 2.775 15.248 5.751 19.5 13.25 4.455 12.29 3.41 28.235-2 40-11.375 21.877-29.491 34.532-52.375 42.313-25.699 7.347-53.69 4.494-77.375-7.625-5.949-3.346-11.164-7.147-16.25-11.687l-2.559-2.238c-11.261-10.473-18.939-24.645-19.715-40.152-.521-17.676-.521-17.676 5.273-24.609a43.93 43.93 0 0 1 8-6l1.934-1.156c2.603-1.063 4.271-1.193 7.066-.844 2.473 1.32 2.473 1.32 5.063 3.125 6.542 4.367 13.447 8.378 20.938 10.875l.028 2.947.179 10.976.063 4.722c.122 12.757 1.231 24.257 10.338 34.094 6.732 6.496 14.913 10.451 24.328 10.824 10.634-.529 20.633-3.713 28.063-11.562 8.562-11.197 9.478-23.034 9.688-36.625l.104-4.488L293 318l3.148-1.504 4.227-2.059 2.215-1.082c4.307-2.154 8.142-4.472 11.973-7.418 3.072-2.234 4.052-2.91 7.938-3.187z" fill="#dc1428"/><path d="M208.085-.114h2.101l6.834.016 4.754.004 12.483.025 12.75.02L272 0v1l-2.273.516C253.077 5.458 239.667 12.25 230 27c-8.625 14.656-9.494 28.085-9.687 44.688l-.104 5.92L220 92l-3.238.012-12.021.14-5.179.043C185.47 92.038 185.47 92.038 173 98c-5.258 5.491-6.118 10.338-6.158 17.693l-.015 2.012-.026 4.313-.053 6.836-.149 19.433-.101 11.899-.026 4.523-.055 6.339-.025 3.638c-.578 4.884-2.242 8.164-5.704 11.627-2.982 1.872-5.238 2.207-8.687 2.688l-.155-53.748-.071-24.959-.056-21.768-.035-11.514-.022-10.864-.034-5.833c.037-10.659 1.756-20.565 6.998-29.939l1.052-1.908C168.01 13.888 180.226 6.063 196 1c4.076-1.004 7.893-1.121 12.085-1.114z" fill="#262a2d"/><path d="M503 313c-.563 7.393-2.237 14.056-4.437 21.125l-1.067 3.435c-3.684 11.523-8.29 22.528-13.496 33.44l-1.096 2.305C463.292 413.854 463.292 413.854 451 420l-.012-2.041C450.72 392.821 446.289 373.374 428 355c3.773-3.346 8.166-4.703 12.813-6.437 21.502-8.354 41.879-19.819 59.754-34.453C502 313 502 313 503 313z" fill="#73c7ef"/><path d="M384 335h8c2.52 8.4 3.182 16.111 3.188 24.875l.037 3.184c.011 6.035-.464 11.167-2.225 16.941l-.789 2.801c-5.698 17.12-18.636 27.35-34.211 35.199-13.881 6.161-29.817 10-45 10v-20l6.688-1.062c15.445-2.773 30.609-7.528 43.313-16.937l2.539-1.863c9.187-7.42 15.315-18.584 16.884-30.293.313-3.467.555-6.931.765-10.406l.248-3.635L384 335zm-169 75h85v20c-10.117 1.124-10.117 1.124-13.747 1.158l-2.47.031-2.576.022-5.6.086-8.674.104c-11.366.113-21.918.539-32.933 3.599l-2.192.588c-1.613.455-3.212.961-4.808 1.475l-3.062.973L215 441v-31z" fill="#dc1428"/><path d="M224.383 239.805l2.742.07 2.758.055L232 240l.938 3.438c.692 3.35.692 3.35 2.063 4.563l9.25.133 2.813.003 5.901-.005 9.066.006 5.719-.004 2.759.006c4.068.4 4.068.4 7.491-1.139l1-7 5.375-.125 3.023-.07C290 240 290 240 292 242c.786 8.133-2.826 14.323-7 21-6.281 7.544-14.403 11.437-24 13-11.212.896-19.085-.437-27.766-7.811-5.067-4.532-8.798-8.765-11.234-15.189l-1.25-2.625c-.925-2.93-1.021-5.321-.75-8.375 2-2 2-2 4.383-2.195z" fill="#fc3f3f"/><path d="M359 89v100c-6.24-1.04-7.183-1.441-11-6-2.298-3.562-2.251-6.611-2.255-10.797l-.011-2.047-.008-4.392-.029-6.979-.077-19.841-.065-12.152-.007-4.603c.03-9.109-.721-16.764-4.547-25.19l-2-5 3.43-.402 4.445-.535 2.262-.264C352.486 90.392 355.769 89 359 89z" fill="#262a2d"/><path d="M256.563 170.563c3.438.438 3.438.438 5.025 1.554 1.99 2.653 2.597 5.259 3.456 8.458l.525 1.947 1.076 4.083 1.658 6.175c2.554 9.537 4.429 17.085-.115 26.236-2.141 3.578-4.226 5.423-8.262 6.578-4.786.845-8.352.595-12.418-2.176-3.38-3.179-5.187-6.906-5.775-11.51-.119-7.874 1.641-15.172 3.517-22.783l.91-3.953.918-3.789.825-3.425c1.77-4.773 3.568-6.77 8.659-7.395z" fill="#ff965a"/><path d="M209.563 396.125C213 397 213 397 215 400l.275 6.978.015 2.139.011 7.003.013 4.868.002 10.206.034 13.077.012 10.055.016 4.821-.006 6.743.002 3.875c-.398 3.442-.854 4.884-3.374 7.232-3.562.438-3.562.438-7 0-2.494-3.741-2.259-5.705-2.275-10.178l-.015-2.203-.011-7.213-.013-5.01-.002-10.501-.034-13.468-.012-10.346-.016-4.966.006-6.937-.002-3.99C203 399 203 399 204.301 397.044 206 396 206 396 209.563 396.125z" fill="#fef6f7"/><path d="M307.563 396.125C311 397 311 397 313 400l.275 6.978.015 2.139.011 7.003.013 4.868.002 10.206.034 13.077.012 10.055.016 4.821-.006 6.743.002 3.875c-.398 3.434-.887 4.866-3.374 7.232-3.061.446-5.018.637-7.663-1.079-2.06-2.96-1.718-5.527-1.725-9.099l-.016-2.203.006-7.213-.009-5.01.016-10.501-.011-13.468v-10.346l-.007-4.966.021-6.937.007-3.99C301 399 301 399 302.302 397.044 304 396 304 396 307.563 396.125z" fill="#fefafa"/><path d="M293 318v32h-1l-1-29-5 5c-13.065 10.302-29.557 14.441-46 13-15.867-1.934-15.867-1.934-20-4v-16l4.625 1.094C250.737 325.972 268.746 318 293 318z" fill="#ef6a31"/><path d="M360 146c9.301 2.067 15.761 4.013 21 12.188 3.43 6.038 3.285 11.577 3.375 18.375l.113 3.174c.091 8.155-1.623 14.628-6.924 20.985-1.377 1.404-1.377 1.404-3.565 3.279l-2-1 1.5-2.562c2.262-5.184 2.012-8.761.375-14.125-3.358-5.932-7.522-7.195-13.875-9.312v-31z" fill="#fd975d"/><path d="M152 147v28l-8 2c-3.496 2.28-5.463 4.143-7 8-.637 5.316-1.154 11.042 1.875 15.688 1.909 2.353 1.909 2.353 4.125 3.313v2c-6.51-2.046-10.464-6.849-13.939-12.507-2.112-4.964-1.693-10.186-1.561-15.493l-.008-3.445c.086-7.432.612-13.593 5.121-19.762 6.528-6.168 9.93-7.793 19.387-7.793z" fill="#fd975c"/><path d="M281.434 129.434l2.167-.019 4.526.009 6.899-.058 4.408.006 2.071-.04c3.822.074 5.413.603 8.433 3.021C312 135 312 135 312.563 138c-.686 3.659-1.99 5.352-4.562 8-4.388 2.194-10.247 1.31-15.121 1.35l-4.367.082-6.313.091-3.818.06c-4.264-.736-5.709-2.26-8.382-5.583-.907-3.026-.464-4.75 0-8 3.122-4.394 6.37-4.603 11.434-4.566zm-71.121-.098l2.095-.014 4.367.027 6.655-.032 4.258.02 3.887.017c4.28.808 5.775 2.254 8.426 5.647.553 3.874.3 6.78-2 10-5.037 3.334-11.457 2.41-17.272 2.426l-6.465.112-4.135.021-3.779.041c-4.26-.762-5.72-2.228-8.35-5.599-.625-3.5-.625-3.5 0-7 3.749-4.821 6.293-5.638 12.313-5.664z" fill="#393d41"/><path d="M360 177c5.873.559 9.837 2.613 13.813 7 2.486 4.186 2.589 8.179 2.188 13-1.457 3.819-3.1 7.1-6 10-.322 2.375-.322 2.375-.309 5.121l-.076 3.084-.094 6.453-.08 3.088-.041 2.834C369 230 369 230 367.633 231.836 366 233 366 233 363.438 232.875 361 232 361 232 359 229c-.185-2.907-.256-5.715-.23-8.621l.001-2.591.023-5.445.02-8.216c.019-9.086.177-18.086 1.186-27.127z" fill="#fdfbfa"/><path d="M152 175l.11 22.534.041 7.671.044 11.006.031 3.482v3.215l.013 2.84C152 228 152 228 150 230c-2.5.25-2.5.25-5 0-2-2-2-2-2.227-4.43l.032-3.015.02-3.262.051-3.418.027-3.441L143 204l-1.892-.859c-2.887-1.563-3.733-3.185-5.108-6.141-.821-5.497-.725-10.438 1.625-15.5 4.614-4.857 7.674-6.743 14.375-6.5z" fill="#fdfcfb"/><path d="M225 152c2.729 2.685 3.892 4.345 4.518 8.15l.014 3.506.016 3.848-.047 3.996.047 3.996-.016 3.848-.014 3.506c-.62 3.776-1.873 5.437-4.518 8.15-2.889 1.444-4.796 1.377-8 1-2.875-1.75-2.875-1.75-5-5-.414-4.035-.29-7.959 0-12l5-1v-13l-5-1c.242-3.634.379-5.434 3.125-7.937 3.808-1.407 5.988-1.193 9.875-.062z" fill="#3d3f43"/><path d="M291.563 150.938c4.155 1.284 5.125 2.438 7.438 6.063.518 3.15.518 3.15.531 6.656l.016 3.848-.047 3.996.047 3.996-.016 3.848-.014 3.506c-.62 3.776-1.873 5.437-4.518 8.15-2.889 1.444-4.796 1.377-8 1-2.875-1.75-2.875-1.75-5-5-.414-4.035-.29-7.959 0-12l5-1v-13l-5-1c.282-3.383.831-4.811 3.125-7.375C288 151 288 151 291.563 150.938z" fill="#3b3f42"/><path d="M279 240l5.375-.125 3.023-.07C290 240 290 240 292 242c.768 7.943-2.679 14.55-7 21-3.699 4.207-7.32 8.013-13 9l-.699-1.977C267.248 259.163 262.227 255.102 252 250l2.064-.06 9.249-.315 3.248-.094 3.115-.117 2.872-.095c2.705-.168 2.705-.168 5.452-2.319.736-3.568.736-3.568 1-7z" fill="#bf1524"/><path d="M233 240h46v7c-2.37 2.37-2.834 2.252-6.051 2.259l-2.528.019-2.734-.012-2.802.006a1183.69 1183.69 0 0 1-5.871-.011c-3.002-.011-6.004 0-9.007.013l-5.695-.008-2.734.012-2.528-.019-2.229-.005C235 249 235 249 233 247v-7z" fill="#fefefe"/><path d="M224.383 239.805l2.742.07 2.758.055L232 240l.813 3.25c1.071 3.383 2.022 5.069 4.188 7.75l-4.25 2.438-2.391 1.371c-2.148 1.085-4.011 1.723-6.359 2.191-4.788-9.618-4.788-9.618-4-15 2-2 2-2 4.383-2.195z" fill="#c01826"/><path d="M312 474h1l.188 6.75.105 3.797c-.306 3.61-.68 4.998-3.293 7.453-3.067.447-5.021.63-7.676-1.078-2.041-2.962-1.609-5.572-1.512-9.109l.082-3.855L301 475l1.898.289 2.477.336 2.461.352L310 476l2-2z" fill="#dd162a"/><path d="M214 474h1l.188 6.75.105 3.797c-.306 3.608-.677 5.002-3.293 7.453-4.082.51-5.53.314-9-2-.221-2.627-.282-5.009-.187-7.625l.041-2.141L203 475l2 1c3.5.25 3.5.25 7 0l2-2z" fill="#dd172a"/><path d="M228 186h1c.325 4.14.43 6.34-1.875 9.875-2.5 2.5-3.447 3.035-6.937 3.5C217 199 217 199 214.125 196.938c-2.595-3.588-2.55-5.605-2.125-9.937l2.125 2c2.719 2.183 2.719 2.183 5.875 2.563 3.958-.742 5.398-2.588 8-5.562z" fill="#fb965b"/><path d="M298 186h1c.325 4.14.43 6.34-1.875 9.875-2.5 2.5-3.447 3.035-6.937 3.5C287 199 287 199 284.125 196.938c-2.595-3.588-2.55-5.605-2.125-9.937l2.125 2c2.719 2.183 2.719 2.183 5.875 2.563 3.958-.742 5.398-2.588 8-5.562z" fill="#fb955a"/><path d="M360 166c5 1 5 1 7.313 3.125 2.068 3.523 2.003 5.856 1.688 9.875l-9-2v-11z" fill="#ef6c33"/><path d="M152 165v10l-10 2c-.357-3.835-.298-5.553 1.875-8.812C146.92 165.053 147.473 165 152 165z" fill="#eb6c34"/><path d="M283 160l5 1v13l-5 1c-1-1-1-1-1.133-3.906l.008-3.594-.008-3.594C282 161 282 161 283 160z" fill="#fdfdfd"/><path d="M213 160l5 1v13l-5 1c-1-1-1-1-1.133-3.906l.008-3.594-.008-3.594C212 161 212 161 213 160z" fill="#fafafa"/></svg>