<svg xmlns="http://www.w3.org/2000/svg" width="512" height="512" xmlns:v="https://vecta.io/nano"><g fill="#fe4155"><path d="M299 4l2.121.731C318.874 11.031 335.786 21.516 347 37v2l1.639.5c5.843 1.855 11.266 4.18 16.736 6.937l2.61 1.315C398.08 63.217 426.149 85.27 447 112l2.391 2.98c17.349 21.807 30.77 46.6 39.609 73.02l.846 2.525c2.995 9.104 5.481 18.272 7.404 27.662l.458 2.225c2.95 15.379 3.668 30.59 3.604 46.213l-.008 2.944C501.118 316.879 488.044 363.758 461 403l-1.253 1.836C429.38 449.091 386.051 482.89 335 500l-2.509.846c-12.603 4.178-25.368 7.141-38.491 9.154l-3.441.542c-11.4 1.624-22.682 1.815-34.184 1.771l-2.951-.006c-14.021-.044-27.655-.454-41.424-3.307l-2.573-.488C169.968 500.987 131.748 484.035 101 458l-1.866-1.562c-11.23-9.431-21.803-19.19-30.958-30.703a230.91 230.91 0 0 0-4.383-5.344C53.079 407.706 44.682 393.677 37 379l-1.168-2.216c-17.511-33.685-25.529-71.448-25.207-109.221l.014-2.975c.08-14.367.428-28.475 3.361-42.588l.602-2.975C26.102 163.721 56.002 110.937 101 76l3.504-2.773 3.559-2.789 1.699-1.341C113.768 66 113.768 66 116 66l-.105-2.465c-.352-14.883 1.45-33.791 10.066-46.406C128 15 128 15 131.188 14.188c4.883 1.041 6.881 3.297 10.402 6.703 7.404 6.48 15.818 8.623 25.441 8.496 9.322-.908 17.709-5.357 26.145-9.176C207.892 13.55 222.485 7.548 238 3l3.809-1.152C259.73-2.648 281.527-2.15 299 4z"/><path d="M299 4l2.121.731C316.028 10.021 328.743 17.804 340 29l1.887 1.781c4.703 4.819 7.406 10.395 10.098 16.496 3.153 6.868 7.489 10.19 14.328 13.472 11.561 6.189 17.799 15.427 21.828 27.734 1.434 6.136 1.199 12.437 1.172 18.703l-.005 2.003c-.072 17.935-2.325 34.823-8.359 51.758-1.028 3.305-1.585 6.501-2.074 9.926L378 177l-13 2-1.562-5.625c-1.483-5.014-3.332-8.859-6.125-13.25-4.649-8.706-4.098-18.296-4.05-27.933.01-14.103-3.402-25.674-13.263-36.192-3.562-2.671-7.731-2.6-12-2-3.594 1.347-6.923 3.145-10.312 4.938-39.724 19.979-84.777 25.588-127.32 11.887a184.03 184.03 0 0 1-15.844-6.074c-2.959-.879-4.613-.725-7.523.25-4.37 5.462-4.116 11.883-4.141 18.602l-.059 4.426-.051 6.871c-.015 10.098-.944 17.969-5.75 27.102l-1.164 2.301-1.922 3.742c-1.648 3.529-2.778 7.238-3.914 10.957l-2.16-.477c-5.094-.939-11.026-1.914-15.816.453-3.743 3.006-5.67 6.036-6.5 10.703-.48 10.325 2.735 18.375 6.441 27.867 2.321 6.008 3.808 12.047 5.148 18.336.872 3.066 1.893 4.693 3.887 7.117v2l2.25.875c2.295.939 4.532 2.016 6.75 3.125l2-25c2 1 2 1 2.651 2.696l.576 2.215.675 2.477.723 2.676C161.606 251.472 169.859 269.154 185 280c2.655 1.206 2.655 1.206 5 2l1.434-2.125c8.184-11.742 16.77-19.094 30.602-23.527 9.382-1.66 20.844-1.416 28.859 3.781 5.44 2.251 12.96 2.046 18.438 0 1.263-.703 2.515-1.426 3.754-2.172 3.737-1.869 7.805-1.8 11.914-1.957l2.402-.191c13.093-.658 23.64 4.97 33.145 13.469 3.881 3.714 6.714 6.558 8.453 11.723 18.541-12.574 28.051-33.716 33-55 2.554 3.83 2.694 7.357 3.102 11.824l.254 2.686c.883 10.095 1.039 20.173 1.02 30.302v2.945c-.031 17.385-1.357 34.106-4.375 51.242l-.469 2.813c-5.876 34.609-22.629 69.884-51.656 90.812-19.38 13.104-41.467 21.854-65.062 17.707-27.028-5.618-50.6-23.031-66.051-45.602-1.635-2.552-3.227-5.117-4.762-7.73-30.722 2.988-57.986 17.158-84.316 32.686C74.501 424.571 74.501 424.571 67 424c-31.139-22.646-48.108-81.621-53.851-117.019-1.982-13.188-2.638-26.095-2.524-39.419l.014-2.975c.08-14.367.428-28.475 3.361-42.588l.602-2.975C26.102 163.721 56.002 110.937 101 76l3.504-2.773 3.559-2.789 1.699-1.341C113.768 66 113.768 66 116 66l-.105-2.465c-.352-14.883 1.45-33.791 10.066-46.406C128 15 128 15 131.188 14.188c4.883 1.041 6.881 3.297 10.402 6.703 7.404 6.48 15.818 8.623 25.441 8.496 9.322-.908 17.709-5.357 26.145-9.176C207.892 13.55 222.485 7.548 238 3l3.809-1.152C259.73-2.648 281.527-2.15 299 4z"/></g><path d="M339.063 94.375c7.648 6.834 13.276 16.46 14.938 26.625a173.8 173.8 0 0 1 0 6.602c-.051 14.62.303 26.604 7.969 39.551 2.317 3.938 2.748 7.313 3.031 11.848l2.156-.98c5.394-1.934 11.46-1.983 16.781.168 4.549 3.997 6.725 7.248 7.292 13.234.182 7.193-1.273 12.651-3.979 19.266-3.089 7.94-5.534 15.661-7.266 24-1.735 5.837-4.917 9.975-9.984 13.313l-5 1-2-20-1.562 3.938-1.109 2.75-2.906 7.375C351.612 257.84 344.139 271.419 331 281h-2c-1.262-1.504-1.262-1.504-2.687-3.562-8.268-11.331-17.537-17.38-31.312-20.437-3.393-.353-6.605-.271-10 0l-2.559.098c-4.309.256-7.473.726-11.191 2.965-5.637 3.134-12.007 2.708-18.25 1.938-2.105-.871-2.105-.871-3.75-1.937-4.419-2.804-8.111-2.879-13.25-3.062l-2.922-.191c-13.483-.541-24.276 5.34-34.113 14.145-3.498 3.644-6.237 7.81-8.965 12.047-14.551-6.085-23.003-19.912-29.25-33.812-3.206-7.872-5.51-16-7.75-24.187l-.168 1.988-.77 8.887-.264 3.129-.264 2.988-.238 2.761C151 247 151 247 150 249c-5.014-1.283-7.669-3.039-11-7-2.753-4.803-4.039-9.548-5.312-14.875-1.575-6.381-3.484-12.37-6-18.437-2.903-7.225-3.892-13.945-2.687-21.687 1.688-3.625 1.688-3.625 4-6l2.063-2.375c4.472-2.474 8.933-2.243 13.938-1.625 2.844 1.023 2.844 1.023 5 2l.295-1.657c1.16-5.879 3.1-10.872 5.768-16.218l2.16-4.43.961-1.937c1.891-4.075 1.997-7.773 2.062-12.172l.1-4.496.131-7.049c.381-21.609.381-21.609 4.836-26.666 3.372-1.725 4.069-1.357 7.688-.375 3.166 1.049 6.301 2.18 9.438 3.313C216.2 118.884 250.392 120.876 284 111l2.374-.69c11.847-3.518 22.858-8.011 33.812-13.753 6.58-3.353 11.742-5.385 18.877-2.181z" fill="#f8b98e"/><path d="M152 224c2 1 2 1 2.651 2.696l.576 2.215.675 2.477.723 2.676C161.606 251.472 169.859 269.154 185 280c2.655 1.206 2.655 1.206 5 2l1.434-2.125c8.184-11.742 16.77-19.094 30.602-23.527 9.382-1.66 20.844-1.416 28.859 3.781 5.44 2.251 12.96 2.046 18.438 0 1.263-.703 2.515-1.426 3.754-2.172 3.737-1.869 7.805-1.8 11.914-1.957l2.402-.191c13.093-.658 23.64 4.97 33.145 13.469 3.881 3.714 6.714 6.558 8.453 11.723 18.541-12.574 28.051-33.716 33-55 2.554 3.83 2.694 7.357 3.102 11.824l.254 2.686c.883 10.095 1.039 20.173 1.02 30.302v2.945c-.031 17.385-1.357 34.106-4.375 51.242l-.469 2.813c-5.876 34.609-22.629 69.884-51.656 90.812-19.38 13.104-41.467 21.854-65.062 17.707-27.284-5.671-50.993-23.341-66.473-46.187-9.266-14.144-15.484-28.992-20.34-45.145l-1.121-3.68c-1.129-4.084-2.046-8.167-2.879-12.32l-.556-2.671c-3.502-17.688-3.821-35.232-3.819-53.204l-.005-3.392A438.13 438.13 0 0 1 152 224z" fill="#3c3b65"/><path d="M299 4l2.121.731C316.028 10.021 328.743 17.804 340 29l1.887 1.781c4.703 4.819 7.406 10.395 10.098 16.496 3.153 6.868 7.489 10.19 14.328 13.472 11.561 6.189 17.799 15.427 21.828 27.734 1.434 6.136 1.199 12.437 1.172 18.703l-.005 2.003c-.072 17.935-2.325 34.823-8.359 51.758-1.028 3.305-1.585 6.501-2.074 9.926L378 177l-13 2-1.562-5.625c-1.483-5.014-3.332-8.859-6.125-13.25-4.649-8.706-4.098-18.296-4.05-27.933.01-14.103-3.402-25.674-13.263-36.192-3.562-2.671-7.731-2.6-12-2-3.594 1.347-6.923 3.145-10.312 4.938-39.724 19.979-84.777 25.588-127.32 11.887a184.03 184.03 0 0 1-15.844-6.074c-2.959-.879-4.613-.725-7.523.25-4.37 5.462-4.116 11.883-4.141 18.602l-.059 4.426-.051 6.871c-.015 10.098-.944 17.969-5.75 27.102l-1.164 2.301-1.922 3.742c-1.652 3.537-2.751 7.235-3.914 10.957l-10-2-.445-2.945c-1.526-9.554-3.709-18.781-6.366-28.084-1.479-5.212-2.662-10.318-3.563-15.658-1.215-6.023-3.709-9.725-7.504-14.48C115.546 107.053 110.787 95.639 108 85l1-3 10 2-.656-3.699c-3.436-19.992-4.5-45.431 7.617-63.172C128 15 128 15 131.188 14.188c4.883 1.041 6.881 3.297 10.402 6.703 7.404 6.48 15.818 8.623 25.441 8.496 9.322-.908 17.709-5.357 26.145-9.176C207.892 13.55 222.485 7.548 238 3l3.809-1.152C259.73-2.648 281.527-2.15 299 4z" fill="#3d3c66"/><path d="M163 385c4.526 2.855 6.873 6.659 9.5 11.188 16.842 27.878 40.283 54.489 72.5 63.813 18.19 4.455 36.392-2.566 51.848-11.848 6.149-4.198 11.668-9.132 17.152-14.152l2.125-1.941c11.811-11.346 21.359-25.571 29.832-39.529 3.632-5.848 3.632-5.848 7.043-7.53 6.128-.581 10.949.551 16.688 2.625l2.559.913c19.056 7.091 37.274 16.937 54.984 26.841 4.147 2.313 8.365 4.445 12.634 6.523C442 423 442 423 445 425l-1.285 1.25c-3.179 3.131-6.243 6.303-9.152 9.688-6.038 6.962-12.53 13.019-19.723 18.781l-5.461 4.5C396.69 469.928 382.67 478.306 368 486l-2.168 1.152C343.547 498.847 318.824 506.22 294 510l-3.522.555c-11.37 1.623-22.631 1.802-34.103 1.757l-2.951-.006c-14.021-.044-27.655-.454-41.424-3.307l-2.573-.488C169.968 500.987 131.748 484.035 101 458l-1.866-1.562C76.222 437.196 76.222 437.196 68 426v-2l1.75-.426c7.513-2.019 13.917-5.362 20.687-9.137l6.938-3.793 3.418-1.88c12.802-7.042 25.583-13.549 39.171-18.951l5.321-2.196c5.705-2.295 11.564-4.045 17.715-2.617z" fill="#fef4ed"/><path d="M176.229 104.708l2.248.815 2.535.906 5.156 1.867c6.204 2.217 12.455 4.051 18.832 5.703l-.208 15.631-.063 5.304c-.085 9.986-.195 18.908-4.729 28.065l3.042.503 11.21 1.896 4.845.812 6.978 1.184 2.175.351c4.163.734 7.347 1.718 10.75 4.255 2.566 3.849 2.551 6.435 3 11-5.159-.881-10.295-1.826-15.398-2.988-10.265-2.316-20.068-3.721-30.602-4.012l-.057 1.741-.443 7.884-.086 2.738c-.486 6.655-.486 6.655-3.293 9.624-1.984 1.488-3.957 2.804-6.121 4.013 2.303 1.535 4.179 2.584 6.688 3.625L196 207c1.662 14.222 3.268 28.402 3.709 42.722A116.84 116.84 0 0 0 201 263.875c.31 3.224.309 4.605-1.355 7.406-1.784 2.039-3.677 3.859-5.645 5.719-1.453 1.946-2.712 3.939-4 6-14.551-6.085-23.003-19.912-29.25-33.812-3.206-7.872-5.51-16-7.75-24.187l-.168 1.988-.77 8.887-.264 3.129-.264 2.988-.238 2.761C151 247 151 247 150 249c-5.014-1.283-7.669-3.039-11-7-2.753-4.803-4.039-9.548-5.312-14.875-1.575-6.381-3.484-12.37-6-18.437-2.903-7.225-3.892-13.945-2.687-21.687 1.688-3.625 1.688-3.625 4-6l2.063-2.375c4.472-2.474 8.933-2.243 13.938-1.625 2.844 1.023 2.844 1.023 5 2l.295-1.657c1.16-5.879 3.1-10.872 5.768-16.218l2.16-4.43.961-1.937c1.891-4.075 1.997-7.773 2.062-12.172l.1-4.496.131-7.049c.381-21.609.381-21.609 4.836-26.666 3.74-1.914 6.034-.901 9.917.333z" fill="#fbac6d"/><path d="M163 385c4.526 2.855 6.873 6.659 9.5 11.188 11.318 18.735 25.283 35.289 42.5 48.813-3.384 1.833-6.843 3.002-10.5 4.188l-4.035 1.336-6.863 2.263c-18.657 6.152-37.523 13.532-51.532 27.808C140 482 140 482 137.625 481.918 120.652 475.983 104.886 462.176 92 450l-4.062-3.5C80.851 440.314 73.639 433.561 68 426v-2l1.75-.426c7.513-2.019 13.917-5.362 20.687-9.137l6.938-3.793 3.418-1.88c12.802-7.042 25.583-13.549 39.171-18.951l5.321-2.196c5.705-2.295 11.564-4.045 17.715-2.617z" fill="#fce5d5"/><path d="M342 381l1 2 6.09.656C351 384 351 384 353 386l-2.078 1.867c-3.911 3.913-6.688 8.63-9.672 13.258-5.047 7.689-10.123 14.999-16.25 21.875l-2.641 3.004c-15.948 17.924-36.63 34.356-61.516 36.234-24.793.55-43.912-13.242-61.082-29.547-12.698-12.375-22.713-26.997-31.957-42.066-1.703-2.826-1.703-2.826-4.805-4.625v-2l11-2 1.547 2.352c16.896 25.104 38.34 43.529 68.266 51.023A90.3 90.3 0 0 0 249 436l1.881.197c22.759 2.089 45.428-7.735 63.056-21.697L319 410l2.285-2.039C329.475 400.248 336.387 390.74 342 381z" fill="#faac6e"/><path d="M266.086 289.672c7.409 2.291 14.682 3.004 22.389 3.506 5.478.411 9.606 1.35 14.525 3.823-4.573 11.833-9.302 23.916-21.102 30.102-13.061 5.396-33.888 5.145-46.898-.102-10.01-4.596-15.173-12.371-19.152-22.363C215 302 215 302 215 299c7.087-5.576 14.639-5.901 23.281-6.543 5.836-.471 11.418-1.6 16.906-3.645 4.028-1.164 6.948-.413 10.898.859z" fill="#f8b98e"/><path d="M383.938 178.188c4.549 3.997 6.725 7.248 7.292 13.234.182 7.193-1.273 12.651-3.979 19.266-3.089 7.94-5.534 15.661-7.266 24-1.735 5.837-4.917 9.975-9.984 13.313a89.88 89.88 0 0 1-5 1l-.168-1.757-.77-7.931-.264-2.764-.264-2.686-.238-2.46c-.27-2.454-.27-2.454-.847-5.042-.546-2.87-.184-4.997.363-7.862l.574-3.203 1.195-6.406c1.07-6.189 1.598-12.184 1.605-18.453l.002-2.058c-.037-3.264-.197-6.258-1.19-9.38 6.042-2.747 12.711-3.33 18.938-.812z" fill="#fbac6c"/><path d="M175 383c1.465 1.977 1.465 1.977 2.938 4.625C189.431 406.454 207.191 422.211 228 430c-3.069 6.364-6.287 10.802-12 15-5.14-1.515-8.337-4.704-12.125-8.312l-2.007-1.901c-13.659-13.134-24.735-28.564-34.466-44.782-1.408-2.27-1.408-2.27-4.402-4.004v-2c8.691-2.462 8.691-2.462 12-1z" fill="#fb985c"/><path d="M217.25 165.813l3.391.502c14.599 2.281 14.599 2.281 19.297 6.373 1.564 3.404 1.752 6.584 2.063 10.313-7.745-1.323-15.423-2.908-23.097-4.591-13.143-2.832-26.813-5.393-38.731 2.083L178 182l-3 2c.247-6.904 2.103-11.069 7-16 10.683-6.623 23.46-4.081 35.25-2.187zm100.25-1.125l3.012-.088c6.367-.055 11.242.611 16.488 4.4 4.047 4.224 6.697 9.085 7 15-3.55-1.708-6.794-3.742-10.098-5.879-11.354-6.691-30.055-1.016-41.902 1.879-2.955.78-5.889 1.58-8.809 2.484-2.457.578-4.676.604-7.191.516.466-4.754 1.127-8.133 4-12 3.472-2.315 6.1-2.779 10.188-3.562l3.855-.754c7.852-1.398 15.488-1.919 23.457-1.996z" fill="#46446b"/><path d="M252 245l4 4c3.382.846 5.827 1.369 9.188.313 1.947-1.302 1.947-1.302 3.625-3.437C271 244 271 244 274.25 243.563c4.388.512 7.687 1.727 11.75 3.438 1.25 6.625 1.25 6.625-1 10-2.102.371-2.102.371-4.625.438-3.661.24-6.01.696-9.125 2.625-5.637 3.134-12.007 2.708-18.25 1.938-2.105-.871-2.105-.871-3.75-1.937-3.874-2.459-6.617-2.61-11.113-2.789C236 257 236 257 234 255c-.125-3.625-.125-3.625 0-7 6.401-3.424 10.797-4.703 18-3z" fill="#faac6d"/><path d="M365 213l3.063 1.5c3.778 1.603 6.809 1.959 10.938 1.5 2.746-1.48 2.746-1.48 5-3l2 1-.988 3.148-.636 2.033-1.389 4.408a232.26 232.26 0 0 0-3.424 11.973c-1.402 4.644-3.588 8.547-7.562 11.438-2.311.741-4.644 1.419-7 2l-.168-1.757-.77-7.931-.264-2.764-.264-2.686-.238-2.46c-.27-2.454-.27-2.454-.85-5.042-.533-2.81-.181-4.827.427-7.611l.555-2.641C364 214 364 214 365 213z" fill="#fb975b"/><path d="M150 213c3.093 3.093 2.846 6.819 3 11-.135 3.997-.485 7.958-.875 11.938l-.277 3.15c-.705 7.626-.705 7.626-1.848 9.912-5.014-1.283-7.669-3.039-11-7-2.89-5.01-4.246-10.124-5.625-15.687l-1.289-5.074-.561-2.249c-.444-1.682-.975-3.34-1.525-4.99 4.75.875 4.75.875 7 2 5.259.405 8.453-.338 13-3z" fill="#fc985b"/><path d="M266.254 289.676c8.185 2.379 16.296 3.423 24.746 4.324-1 3-1 3-3.441 4.387-8.439 3.517-13.883 5.172-22.559 1.613-3.913-.295-7.242-.018-11 1-8.548 2.235-15.355.281-23-4l-1-3 1.709-.228 7.791-1.085 2.688-.357c22.27-3.193 22.27-3.193 24.066-2.654z" fill="#f7aa6d"/><path d="M307.438 190.813l3.434-.043c3.006.221 4.654.563 7.129 2.23 1.759 3.519 1.508 7.161 1 11-1.973 4.498-1.973 4.498-5 6-5.086.776-9.921 1.016-15 0-3.275-3.297-4.885-5.754-5.312-10.375.313-3.625.313-3.625 2.125-6 3.789-2.815 7.035-2.786 11.625-2.812z" fill="#44436c"/><path d="M209.875 190.563l3.617.004c3.945.488 7.614 1.54 10.508 4.434.689 4.673.34 8.225-1.562 12.563-3.018 3.141-6.882 3.042-11 3.125-6.716.02-6.716.02-9.84-3.043-2.602-4.306-3.035-7.655-2.598-12.645 3.119-4.307 5.717-4.521 10.875-4.437z" fill="#414169"/><path d="M198 163.813l3.125-.043c2.84.228 4.466.765 6.875 2.23l-1 2v7l-3.551.008c-9.904.185-17.144 1.074-25.449 6.992l-3 2c.247-6.904 2.103-11.069 7-16 5.295-3.283 9.841-4.149 16-4.187z" fill="#3b395f"/><path d="M301 167l.375 3.313c.38 3.761.38 3.761 2.625 6.688-4.798 1.688-9.62 2.959-14.562 4.125l-2.248.551c-3.806.901-7.247 1.558-11.189 1.324.466-4.754 1.127-8.133 4-12 6.341-4.227 13.584-4.235 21-4z" fill="#3a385f"/><path d="M260.5 311.625l3.469-.023c3.031.398 3.031.398 4.945 1.699C270 315 270 315 269.875 318.563 269 322 269 322 266 324c-4.877.64-9.451.973-13.687-1.687-1.569-2.764-1.874-4.186-1.312-7.312 2.527-3.672 5.269-3.404 9.5-3.375z" fill="#fbad6e"/><path d="M294 195l.332 2.012c.879 4.897 1.662 8.89 4.668 12.988-7.094-.585-14.016-1.632-21-3 1.301-3.904 2.904-4.453 6.375-6.562l2.961-1.816L290 197c3-2 3-2 4-2z" fill="#fcefe6"/><path d="M224 195c4.127 1.441 7.302 3.473 10.813 6.063l2.957 2.16L240 205v1l-7.75 2-2.211.578c-3.485.887-6.42 1.422-10.039 1.422l3-6c.225-1.537.408-3.08.563-4.625l.254-2.477L224 195z" fill="#faeee7"/><path d="M200 193l-.105 1.723c-.197 5.615.551 9.274 3.105 14.277-4.49-.587-8.225-1.764-12.375-3.562l-3.211-1.379L185 203c2.43-3.235 4.597-5.709 8.063-7.812l2.035-1.27C197 193 197 193 200 193z" fill="#fcefe7"/><path d="M318 193c4.283.548 6.851 2.024 10.313 4.563l2.676 1.941L333 201l-1 3c-2.617 1.168-2.617 1.168-5.875 2.188l-3.242 1.043C320 208 320 208 317 208l.496-1.641c.59-2.762.6-5.288.566-8.109l-.027-2.984L318 193z" fill="#fbf0e9"/><path d="M307.625 195.313C310 196 310 196 311 197c.25 2.938.25 2.938 0 6-3 2-3 2-5.625 1.688C303 204 303 204 302 203c-.25-2.937-.25-2.937 0-6 3-2 3-2 5.625-1.687z" fill="#35355e"/></svg>