<svg xmlns="http://www.w3.org/2000/svg" width="512" height="512" xmlns:v="https://vecta.io/nano"><path d="M267 0c2.917 1.361 5.551 2.954 8.289 4.641C280.138 7.072 284.747 7.081 290 6c2.747-1.328 2.747-1.328 5.375-3C301.783-.878 307.669-1.307 315 0c2.944 1.357 5.591 2.94 8.34 4.652C327.829 6.927 332.109 6.801 337 6c2.446-.831 4.654-1.896 7-3 3.188-.5 3.188-.5 6 0 3.356 2.721 4.311 5.421 4.938 9.563C356.187 34.321 338.98 58.934 327 76l1.609.996C334.232 80.782 337.23 84.402 339 91c.711 5.008-.126 9.314-2 14l1.664.758C363.615 119.026 387.904 144.989 405 167l2.816 3.406c30.088 36.409 50.391 81.807 50.434 129.469l.002 2.079C458.209 329.46 451.424 355.864 436 379l2.735-1.253 10.125-4.618 4.367-1.996 6.308-2.875 1.945-.897c8.973-4.054 18.3-6.43 27.895-3.111 6.695 2.959 10.242 7.414 13.625 13.75 2.169 6.506 2.35 16.134-.5 22.5-5.181 7.94-13.702 12.752-21.625 17.563l-6.426 3.961-3.264 2.007-14.498 9.157-5.445 3.473-2.653 1.692-12.276 7.773-2.348 1.482-9.278 5.852L397 471l-23.021 14.591-11.823 7.577c-18.313 11.943-35.093 19.304-57.366 19.252l-4.11.026-11.047.023c-3.096 0-6.191.008-9.287.017l-21.953.015c-7.496-.007-14.992.016-22.489.053l-19.444.038c-3.851-.002-7.701.003-11.552.028-16.217.096-31.442-.142-46.909-5.62l-3.425-1.17c-2.953-1.038-5.855-2.171-8.763-3.33l-7.305-2.832-2.075-.806-33.35-12.591-11.64-4.36L73 475l.141 3.473.109 4.59.102 2.279c.099 5.736-.935 9.005-4.352 13.658-4.449 4.066-9.854 3.451-15.559 3.434l-3.097.016a934.89 934.89 0 0 1-6.473-.003c-3.294-.009-6.587.02-9.882.052-2.1.002-4.199.001-6.299-.002l-2.974.034c-5.889-.06-9.222-.63-13.717-4.53-4.06-5.46-4.125-10.776-4.14-17.412l-.009-2.233-.012-7.394-.015-5.308L6.8 451.24l-.012-9.009-.027-28.203-.051-32.527-.033-25.162-.025-15.019-.01-14.134-.013-5.175c-.109-20.082-.109-20.082 4.788-25.61 3.715-3.286 6.897-4.513 11.76-4.578l2.54-.039 2.737-.022 2.829-.024 5.931-.032 9.033-.105 5.77-.025 2.712-.053c5.954.02 9.389 1.024 14.272 4.479 4.339 4.828 4.522 8.711 4.25 14.875l-.055 2.375L73 319l2.648-.07c11.835-.174 23.757.527 35.352 3.07l-.487-2.554c-7.336-49.309 12.761-100.164 41.487-139.321 5.984-8.018 12.32-15.68 19-23.125l1.409-1.58c8.984-10.046 18.312-19.69 28.591-28.42l3.219-2.812c6.42-5.594 12.872-10.893 19.867-15.762L226 107v-1c-21.279-.992-43.754 2.617-61 16-3.44 3.363-6.296 6.967-9 10.938-2 2.063-2 2.063-5.437 3.063-3.934 0-5.517-.581-8.562-3-1.637-3.274-1.463-5.351-1-9 3.197-5.268 7.491-9.829 12-14l2.813-2.812C173.271 92.525 197.33 89.804 219 87l-3.746-3.355-2.107-1.887c-8.8-7.202-18.262-8.002-29.209-7.757-18.101.171-37.017-1.503-51.937-13-2.48-3.721-2.463-5.598-2-10 1.847-2.599 3.193-3.701 6.172-4.805 3.998-.276 6.89 1.344 10.391 3.055 11.655 5.315 21.294 6.943 34.078 6.774C198.928 55.819 213.602 59.013 228 71c.937 1.003 1.858 2.02 2.75 3.063L233 76c3.607-.327 3.607-.327 7-1l-1.617-2.43C211.346 31.509 211.346 31.509 213 11c1.858-5.858 1.858-5.858 4-8 4.802-.384 7.685.315 12 2.309 4.302 1.487 8.549 1.47 13 .691 2.703-1.32 2.703-1.32 5.313-3C253.752-.858 259.649-1.312 267 0z" fill="#eabc6b"/><path d="M73 319c17.816 0 17.816 0 23.75.688l2.244.259c23.716 3.056 45.473 12.715 65.946 24.643 21.823 12.694 43.103 15.802 67.916 18.411l2.369.249 21.924 2.251 12.143 1.259 4.548.459c17.606 1.717 31.177 5.589 43.223 19.095 4.824 6.691 6.982 12.76 7.254 20.984l.127 3.652.119 3.801.131 3.848L325 428l17.813-7.812 2.746-1.205 32.246-14.198 2.903-1.284 13.848-6.13 12.228-5.394 6.418-2.855 3.787-1.67 3.255-1.448C423 385 423 385 427 385l2.938 5.25 1.652 2.953c2.826 5.604 3.434 11.311 1.656 17.363-2.622 6.9-5.681 11.803-12.113 15.711l-2.899 1.783-3.109 1.877-6.547 4.023-3.342 2.046-14.361 9.056-2.713 1.729-10.967 7.002-16.585 10.554-5.144 3.269c-16.876 10.743-32.492 16.889-52.852 16.756l-3.844.011c-3.438.009-6.876 0-10.314-.013l-10.872-.005a5728.39 5728.39 0 0 1-18.246-.029l-20.996-.018a8143.55 8143.55 0 0 1-20.325-.011l-8.592-.003c-4.012.002-8.024-.012-12.036-.028l-3.537.008c-20.351-.13-37.812-6.903-56.559-14.034l-28.158-10.538-2.244-.831-9.06-3.353-6.759-2.503-2.011-.742C83.663 450.279 78.349 448.14 73 446V319z" fill="#fedccd"/><path d="M23.177 291.823l2.54-.039 2.737-.022 2.829-.024 5.931-.032 9.033-.105 5.77-.025 2.712-.053c5.956.02 9.467.869 14.272 4.479 5.446 5.725 4.538 12.402 4.454 19.9l.002 4.259-.05 11.527-.032 12.06-.085 22.821-.087 25.988L73 446l2.032.601 2.691.801 2.657.788c3.894 1.204 7.694 2.62 11.503 4.068l2.452.923 7.791 2.945 5.411 2.039 10.646 4.017 26.242 9.855 5.272 1.979 7.803 2.922 2.267.857c12.325 4.579 24.119 5.352 37.216 5.382l3.823.02 12.448.041 4.321.012 20.316.042 23.293.077 18.111.048 10.768.036c30.992.208 50.363-6.929 76.201-23.685L378.5 452l15.012-9.508 2.836-1.806 5.637-3.607c4.208-2.695 8.422-5.344 12.754-7.837 8.475-4.92 14.961-9.454 17.871-19.305 1.542-7.651-.52-13.025-3.609-19.937l-1.008-2.738c-.774-2.419-.774-2.419-2.992-3.262 10.484-5.092 21.105-9.838 31.813-14.437l1.886-.814 5.383-2.307 3.163-1.353c7.041-2.781 14.899-3.367 22.13-.838 6.695 2.959 10.242 7.414 13.625 13.75 2.169 6.506 2.35 16.134-.5 22.5-5.181 7.94-13.702 12.752-21.625 17.563l-6.426 3.961-3.264 2.007-14.498 9.157-5.445 3.473-2.653 1.692-12.276 7.773-2.348 1.482-9.278 5.852L397 471l-23.021 14.591-11.823 7.577c-18.313 11.943-35.093 19.304-57.366 19.252l-4.11.026-11.047.023c-3.096 0-6.191.008-9.287.017l-21.953.015c-7.496-.007-14.992.016-22.489.053l-19.444.038c-3.851-.002-7.701.003-11.552.028-16.217.096-31.442-.142-46.909-5.62l-3.425-1.17c-2.953-1.038-5.855-2.171-8.763-3.33l-7.305-2.832-2.075-.806-33.35-12.591-11.64-4.36L73 475l.141 3.473.109 4.59.102 2.279c.099 5.736-.935 9.005-4.352 13.658-4.449 4.066-9.854 3.451-15.559 3.434l-3.097.016a934.89 934.89 0 0 1-6.473-.003c-3.294-.009-6.587.02-9.882.052-2.1.002-4.199.001-6.299-.002l-2.974.034c-5.889-.06-9.222-.63-13.717-4.53-4.06-5.46-4.125-10.776-4.14-17.412l-.009-2.233-.012-7.394-.015-5.308L6.8 451.24l-.012-9.009-.027-28.203-.051-32.527-.033-25.162-.025-15.019-.01-14.134-.013-5.175c-.109-20.082-.109-20.082 4.788-25.61 3.715-3.286 6.897-4.513 11.76-4.578z" fill="#fecbbe"/><path d="M336 104c5.429 2.908 10.077 6.263 14.813 10.188l2.121 1.741c4.658 3.845 9.218 7.782 13.66 11.876 2.005 1.83 4.041 3.604 6.098 5.375 11.73 10.244 22.8 21.485 32.309 33.82l2.809 3.398c30.096 36.404 50.399 81.815 50.441 129.477l.002 2.079c-.041 26.022-5.641 59.351-24.252 79.046-2.814 1.686-5.778 2.948-8.793 4.23l-2.673 1.176-8.722 3.781-6.081 2.66-12.539 5.462-17.486 7.656-27.559 12.095-6.133 2.686L334 425.125l-2.824 1.237-2.489 1.083-2.113.922C325 429 325 429 324 429l-.023-7.922c.015-1.907-.022-3.816-.141-5.719-.041-4.307.363-6.519 3.398-9.703 2.862-2.309 5.799-4.484 8.766-6.656 17.835-15.241 28.617-37.881 35-60l1.003-3.315c3.098-11.453 3.405-23.328 3.372-35.122l-.002-2.228c-.214-63.458-36.612-116.618-79.852-160.007-4.521-4.468-9.2-8.533-14.252-12.398-2.461-2.092-4.331-4.354-6.27-6.93l3.207-.078c10.037-.339 19.913-1.318 29.855-2.734l3.419-.464c12.588-1.823 12.588-1.823 22.643-8.974L336 104z" fill="#e8ae4d"/><path d="M23.177 291.823l2.54-.039 2.737-.022 2.829-.024 5.931-.032 9.033-.105 5.77-.025 2.712-.053c5.956.02 9.467.869 14.272 4.479 3.723 4.566 4.579 8.143 4.508 13.888l.019 2.352-.009 7.772.021 5.584-.002 15.149.006 15.861-.021 26.639.007 30.783.01 26.441.006 15.787-.02 14.846.005 5.443-.023 7.44.027 2.166c-.084 5.431-1.577 8.453-4.535 12.848-4.449 4.066-9.854 3.451-15.559 3.434l-3.097.016a934.89 934.89 0 0 1-6.473-.003c-3.294-.009-6.587.02-9.882.052-2.1.002-4.199.001-6.299-.002l-2.974.034c-5.889-.06-9.222-.63-13.717-4.53-4.06-5.46-4.125-10.776-4.14-17.412l-.009-2.233-.012-7.394-.015-5.308L6.8 451.24l-.012-9.009-.027-28.203-.051-32.527-.033-25.162-.025-15.019-.01-14.134-.013-5.175c-.109-20.082-.109-20.082 4.788-25.61 3.715-3.286 6.897-4.513 11.76-4.578z" fill="#406f93"/><path d="M267 0c2.917 1.361 5.551 2.954 8.289 4.641C280.138 7.072 284.747 7.081 290 6c2.747-1.328 2.747-1.328 5.375-3C301.783-.878 307.669-1.307 315 0c2.944 1.357 5.591 2.94 8.34 4.652C327.829 6.927 332.109 6.801 337 6c2.446-.831 4.654-1.896 7-3 3.188-.5 3.188-.5 6 0 3.356 2.721 4.311 5.421 4.938 9.563.989 17.215-10.242 34.984-18.713 49.322-1.157 1.999-2.233 4.026-3.303 6.073-2.767 4.969-5.018 8.447-10.656 10.211-3.351.527-6.674.634-10.065.69-2.476.16-4.781.629-7.208 1.142-7.293 1.4-14.596 1.349-21.992 1.313l-2.199-.004C251.488 81.217 251.488 81.217 240 75c-2.301-2.723-2.301-2.723-4.312-6.062l-1.12-1.844L231 61l-1.28-2.175C211.628 28.014 211.628 28.014 213 11c1.858-5.858 1.858-5.858 4-8 4.802-.384 7.685.315 12 2.309 4.302 1.487 8.549 1.47 13 .691 2.703-1.32 2.703-1.32 5.313-3C253.752-.858 259.649-1.312 267 0z" fill="#e8ae4d"/><path d="M287 153c2.18 1.598 2.18 1.598 4 4 .391 3.453.391 3.453.25 7.25l-.109 3.828L291 171l1.695.191c8.72 1.332 18.501 4.864 24.719 11.313C319 185 319 185 319 188.625c-1 3.375-1 3.375-2.687 5.313-3.24 1.489-4.738 1.658-8.312 1.063-2.545-1.375-4.941-2.877-7.34-4.492-3.226-1.966-3.226-1.966-9.66-3.508l1 49 16 6c8.935 5.993 16.758 13.485 19.582 24.211 2.053 13.702.742 26.398-7.27 38.039-7.035 8.467-14.619 14.63-25.312 17.75h-4l.176 3.07c.496 12.194.496 12.194-2.238 15.93-2.937 2-2.937 2-6.5 2.188-4.114-1.421-5.168-2.515-7.437-6.187-.286-2.761-.386-5.081-.25-7.812l.055-2.1L275 322l-2.203.176c-12.015.539-22.114-4.253-31.797-11.176-1.597-3.194-1.503-6.533-1-10 1.625-2 1.625-2 4-3 6.488-.65 10.565 2.185 16.074 5.273 4.928 2.349 4.928 2.349 14.926 3.727l-1-61-14-7c-6.331-4.299-10.635-8.107-14-15l-1.109-2.195c-1.232-3.88-1.232-7.506-1.203-11.555l.017-2.443c.217-10.601 3.591-18.781 10.959-26.565 5.987-5.44 12.272-8.57 20.336-9.242l-.141-2.887-.109-3.801-.141-3.762c.453-4.12 1.493-5.659 4.391-8.551 2.971-1.486 4.834-.823 8 0z" fill="#fefdfb"/><path d="M140.938 47.125l2.402.848c3.876 1.497 7.678 3.152 11.473 4.844 7.656 2.843 14.634 3.398 22.75 3.184 19.376-.213 35.066 2.143 50.438 15l2.5 3c3.479 2.783 5.996 2.197 10.328 1.98 4.74.029 9.124 1.159 13.715 2.266 8.411 1.834 16.702 1.971 25.281 1.994l6.43.072c8.67.065 16.676-.782 25.154-2.616 6.76-1.31 14.504-2.525 20.655 1.241 4.216 3.712 6.467 8.734 7.246 14.246.215 6.703-1.941 11.243-6.367 16.083-6.419 5.731-16.113 6.809-24.316 7.983l-3.531.508c-21.271 2.797-54.327 5.481-73.594-6.758-2.5-2-2.5-2-3.691-3.598-2.822-2.188-5.82-1.889-9.246-1.84l-2.251.021c-18.313.507-39.96 5.318-53.409 18.468-2.524 2.846-4.761 5.741-6.902 8.887-2 2.063-2 2.063-5.437 3.063-3.934 0-5.517-.581-8.562-3-1.637-3.274-1.463-5.351-1-9 3.197-5.268 7.491-9.829 12-14l2.813-2.812C173.271 92.525 197.33 89.804 219 87l-3.746-3.355-2.107-1.887c-8.8-7.202-18.262-8.002-29.209-7.757-18.101.171-37.017-1.503-51.937-13-2.48-3.721-2.463-5.598-2-10 3.167-4.15 5.962-5.635 10.938-3.875z" fill="#fedf7c"/><path d="M140.938 47.125l2.402.848c3.876 1.497 7.678 3.152 11.473 4.844 7.656 2.843 14.634 3.398 22.75 3.184 19.539-.215 34.827 2.305 50.438 15l1.832 1.484c1.951 1.741 3.126 2.841 3.293 5.516-1.582 2.813-3.823 4.754-6.125 7-2.155 3.343-2.242 6.068-2.187 10l.02 3.125c.143 2.456.463 4.53 1.168 6.875l-3.016.078c-20.506.746-44.758 3.991-60.082 18.973-2.524 2.846-4.761 5.741-6.902 8.887-2 2.063-2 2.063-5.437 3.063-3.934 0-5.517-.581-8.562-3-1.637-3.274-1.463-5.351-1-9 3.197-5.268 7.491-9.829 12-14l2.813-2.812C173.271 92.525 197.33 89.804 219 87l-3.746-3.355-2.107-1.887c-8.8-7.202-18.262-8.002-29.209-7.757-18.101.171-37.017-1.503-51.937-13-2.48-3.721-2.463-5.598-2-10 3.167-4.15 5.962-5.635 10.938-3.875z" fill="#ffd063"/><path d="M267 0c3.06 1.312 5.762 2.827 8.578 4.598C278.809 6.469 281.311 6.836 285 7l-3 1c-.669 1.812-.669 1.812-.945 4.012-.966 5.006-2.707 9.231-4.93 13.801l-1.191 2.471C266.498 45.419 255.717 61.235 245 77c-4.903-1.73-6.434-3.536-9.187-8l-1.148-1.858L231 61l-1.289-2.179C211.628 28.009 211.628 28.009 213 11c1.858-5.858 1.858-5.858 4-8 4.802-.384 7.685.315 12 2.309 4.302 1.487 8.549 1.47 13 .691 2.703-1.32 2.703-1.32 5.313-3 6.447-3.863 12.33-4.297 19.688-3z" fill="#eabb6a"/><path d="M241.694 413.659l2.691-.001 8.814.049 6.108.013 16.083.074 16.409.06L324 414v15l-35.388.259-16.431.118-15.853.097-6.052.054-8.468.039-2.535.054c-3.953-.035-5.846-.236-8.827-2.931-1.972-3.67-1.545-5.733-.446-9.691 3.152-4.032 6.939-3.402 11.694-3.341z" fill="#ffcbbe"/><path d="M291 253c8.978 1.796 14.748 5.377 20 13 3.135 6.46 2.979 13.306 1.16 20.168-2.562 6.806-5.99 12.755-12.16 16.832l-9 3v-53z" fill="#eabc6c"/><path d="M275 188v41c-13.15-6.575-13.15-6.575-15.488-12.887-1.531-6.322-1.396-12.163 1.613-17.988C264.309 193.063 268.659 188 275 188z" fill="#eabd6d"/></svg>