<svg xmlns="http://www.w3.org/2000/svg" width="512" height="512" xmlns:v="https://vecta.io/nano"><path d="M224.25 19.563l2.22-.031c10.444.17 18.369 4.788 27.092 10.156l2.998 1.779c13.056 7.962 19.852 16.771 23.861 31.502.82 4.298 1.143 8.677 1.578 13.031l51 11 1 172 12-6c2.864-1.031 5.584-1.954 8.5-2.75l1.988-.59c11.24-3.202 22.359-4.069 34.012-4.035l2.124.002c11.812.042 23.011.995 34.376 4.373l2.151.633c15.655 4.809 30.756 13.235 38.806 27.96 2.9 6.69 3.336 12.558 3.318 19.773l.015 3.087.011 10.066.013 7.028.002 14.72.034 18.812.012 14.513.016 6.933-.006 9.719.023 2.861c-.092 11.721-3.582 19.615-11.446 28.108C441.286 432.564 413.035 436.814 388 437c-4.354-.117-8.676-.479-13-1l.07 2.309c.227 12.969-2.169 22.505-11.133 32.316-21.965 20.298-52.848 22.674-81.194 21.586-21.671-1.224-44.757-8.915-59.744-25.211-3.735-5.284-7.148-10.381-7.098-17.012l.01-2.295.025-2.381.014-2.416L216 437c-10.891 5.968-21.668 12.108-32.382 18.387l-27.827 16.019-3.338 1.902-3.24 1.832a223.37 223.37 0 0 0-6.566 3.958l-3.225 2-2.872 1.832c-2.55 1.07-2.55 1.07-4.656.602-2.553-2.065-3.917-4.318-5.608-7.133l-1.023-1.683-3.2-5.341-2.131-3.527-4.083-6.79a343.32 343.32 0 0 0-4.852-7.769C109 448 109 448 109 446l-1.784-.332-44.654-8.918-2.576-.54-7.295-1.538-2.222-.467c-2.887-.614-5.666-1.271-8.469-2.205l-.5-73.5-.018-2.762-.544-155.863.003-3.928L41 150l2.105-1.175 9.648-5.391 3.31-1.847 21.873-12.524 3.343-1.957 2.614-1.536 15.924-9.228 6.576-3.816c5.202-3.036 10.413-5.971 15.785-8.695 13.133-6.834 18.842-12.953 24.687-26.437 11.532-24.356 36.279-46.89 61.509-55.957 5.299-1.44 10.414-1.807 15.875-1.875z" fill="#f35170"/><path d="M390.5 245.625l2.124.002c11.812.042 23.011.995 34.376 4.373l2.151.633c15.655 4.809 30.756 13.235 38.806 27.96 2.9 6.69 3.336 12.558 3.318 19.773l.015 3.087.011 10.066.013 7.028.002 14.72.034 18.812.012 14.513.016 6.933-.006 9.719.023 2.861c-.092 11.721-3.582 19.615-11.446 28.108C441.286 432.564 413.035 436.814 388 437c-4.354-.117-8.676-.479-13-1l.07 2.309c.227 12.969-2.169 22.505-11.133 32.316-21.965 20.298-52.848 22.674-81.194 21.586-21.671-1.224-44.757-8.915-59.744-25.211-4.307-6.093-7.105-11.163-7.177-18.706l-.039-3.551-.022-3.845-.024-3.958-.032-8.307-.085-10.58-.045-10.154-.053-3.808c.027-10.977 3.051-18.968 10.479-27.091 18.855-18.387 46.544-23.326 71.883-23.241 4.795.073 9.365.546 14.117 1.241l-.027-2.552-.18-23.919-.095-12.294-.078-11.885-.043-4.514c-.18-13.011 1.712-21.888 10.868-31.449 9.406-8.788 19.698-14.392 31.93-18.074l2.034-.614c11.278-3.216 22.395-4.108 34.091-4.073z" fill="#fcba1f"/><path d="M41 150l2.182.605c10.015 2.757 20.013 4.985 30.277 6.571 33.047 5.169 33.047 5.169 39.56 12.008 2.567 3.653 4.166 7.449 5.576 11.667 1.177 2.64 2.305 4.518 3.986 6.819 8.93 12.433 9.931 22.491 9.6 37.5l-.009 6.719-.098 14.054-.028 20.474.055 38.198-.008 18.929-.021 35.567-.017 28.424-.001 2.041-.004 10.145L132 483c-2.718-2.658-4.847-5.094-6.77-8.379l-1.495-2.528-1.548-2.656-3.191-5.402-1.551-2.625c-2.341-3.906-4.82-7.715-7.335-11.512C109 448 109 448 109 446l-1.784-.332-44.654-8.918-2.576-.54-7.295-1.538-2.222-.467c-2.887-.614-5.666-1.271-8.469-2.205l-.5-73.5-.018-2.762-.544-155.863.003-3.928L41 150z" fill="#f35170"/><path d="M224.25 19.563l2.22-.031c10.444.17 18.369 4.788 27.092 10.156l2.998 1.779c13.056 7.962 19.852 16.771 23.861 31.502.525 2.754.845 5.432 1.114 8.221l.265 2.73L282 76l1.764.366 18.152 3.796 6.777 1.414 9.733 2.041 3.068.632 2.851.606 2.51.525C329 86 329 86 332 88c-17.133 10.855-34.913 20.676-52.524 30.726l-32.191 18.618-33.143 19.049-18.3 10.589L175 179l-23.625 13.625-2.022 1.187c-2.85 1.679-5.666 3.387-8.458 5.161l-2.707 1.715-2.207 1.449c-2.525 1.101-3.439.857-5.98-.137-1.397-1.696-1.397-1.696-2.664-3.91l-1.465-2.506-1.496-2.646-4.57-7.779c-1.37-2.397-2.551-4.732-3.71-7.228-3.049-6.151-5.879-11.447-12.559-13.988-5.282-1.551-10.663-2.382-16.099-3.193l-5.502-.98-10.784-1.861C61.295 156.228 51.596 153.797 42 151c2.4-2.656 4.964-4.28 8.066-6.047l3.119-1.787 3.377-1.916 3.514-2.01 7.303-4.172L84 125.5l23.313-13.429 6.676-3.877c4.487-2.622 8.941-5.213 13.625-7.468 9.814-4.871 13.343-10.946 17.945-20.742 12.041-25.451 36.239-48.995 62.816-58.547 5.299-1.44 10.414-1.807 15.875-1.875z" fill="#fedc97"/><path d="M312 316l3.008 6.297c6.394 14.04 19.175 21.818 33.142 27.313 29.938 10.898 65.032 9.715 93.851-3.61 4.17-2.07 8.127-4.418 12-7l1.852-1.234c6.462-4.838 10.321-12.384 13.148-19.766h1c-.043 10.031-3.843 16.836-10.562 24.125-10.241 9.55-26.264 18.198-40.531 19.063L417 361c3.303 7.823 7.478 11.27 15 15l2.309 1.16L436 378l-1.758.48c-6.587 1.968-10.888 4.24-14.992 9.957-1.363 2.795-2.351 5.588-3.25 8.563h-1l-2-7-3.01.016-11.132.039-4.804.021-6.933.022-2.144.016c-4.441 0-8.61-.393-12.977-1.113l.969 2.121c2.634 7.353 1.87 15.039-1.344 22.066-9.452 16.74-26.341 24.277-44.062 29.5-28.793 7.239-61.797 5.08-88-9.5-10.244-6.182-18.418-13.252-22.875-24.5-2.037-10.925-.294-18.65 5.938-27.75 13.897-17.371 37.542-24.205 58.756-26.703 10.233-.916 20.465-.685 30.619.766v-39zm78.5-70.375l2.124.002c11.812.042 23.011.995 34.376 4.373l2.151.633c14.693 4.514 29.937 12.426 37.724 26.179L469 281l1 2c1.051 12.853-.644 20.968-9 31.125-16.988 17.825-44.041 23.436-67.734 24.216-24.65.362-51.721-5.689-70.04-23.048-6.798-7.001-11.231-13.738-11.664-23.668.394-10.989 5.57-18.275 13.438-25.625 8.979-7.474 18.253-12.339 29.375-15.687l2.034-.614c11.278-3.216 22.395-4.108 34.091-4.073z" fill="#fedc98"/><path d="M258 33c-2 1-2 1-4.875.063-13.009-3.889-26.306.621-37.875 6.688-6.308 3.451-11.854 7.488-17.25 12.25l-2.48 2.082C169.178 76.748 149.966 113.359 147 148c-.649 9.878-.584 19.206 2.344 28.75C150 179 150 179 150 182c12.013-5.626 23.334-12.366 34.753-19.094l16.122-9.343 3.271-1.885 6.572-3.787 19.497-11.246 15.07-8.688 5.298-3.051 6.617-3.809 5.967-3.471a133.04 133.04 0 0 1 5.712-3.098c5.802-3.016 5.802-3.016 8.938-8.49a76.5 76.5 0 0 0 .746-4.414l.416-2.113C280.373 91.771 280.583 83.841 281 76l20.343 4.163 6.923 1.414 9.941 2.041 3.135.632 2.911.606 2.564.525C329 86 329 86 332 88c-17.133 10.855-34.913 20.676-52.524 30.726l-32.191 18.618-33.143 19.049-18.3 10.589L175 179l-23.625 13.625-2.022 1.187c-2.85 1.679-5.666 3.387-8.458 5.161l-2.707 1.715-2.207 1.449c-2.525 1.101-3.439.857-5.98-.137-1.397-1.696-1.397-1.696-2.664-3.91l-1.465-2.506-1.496-2.646-4.57-7.779c-1.37-2.397-2.551-4.732-3.71-7.228-3.049-6.151-5.879-11.447-12.559-13.988-5.282-1.551-10.663-2.382-16.099-3.193l-5.502-.98-10.784-1.861C61.295 156.228 51.596 153.797 42 151c2.4-2.656 4.964-4.28 8.066-6.047l3.119-1.787 3.377-1.916 3.514-2.01 7.303-4.172L84 125.5l23.313-13.429 6.676-3.877c4.487-2.622 8.941-5.213 13.625-7.468 9.814-4.871 13.343-10.946 17.945-20.742 12.041-25.451 36.239-48.995 62.816-58.547C228.089 16.079 241.791 22.399 258 33z" fill="#f7f6fb"/><path d="M312 316l3.008 6.297c6.394 14.04 19.175 21.818 33.142 27.313 29.938 10.898 65.032 9.715 93.851-3.61 4.17-2.07 8.127-4.418 12-7l1.852-1.234c6.462-4.838 10.321-12.384 13.148-19.766h1c-.043 10.031-3.843 16.836-10.562 24.125-10.241 9.55-26.264 18.198-40.531 19.063L417 361c3.303 7.823 7.478 11.27 15 15l2.309 1.16L436 378l-1.758.48c-6.587 1.968-10.888 4.24-14.992 9.957-1.363 2.795-2.351 5.588-3.25 8.563h-1l-2-7-3.01.016-11.132.039-4.804.021-6.933.022-2.144.016c-4.441 0-8.61-.393-12.977-1.113l.969 2.121c2.634 7.353 1.87 15.039-1.344 22.066-9.452 16.74-26.341 24.277-44.062 29.5-28.793 7.239-61.797 5.08-88-9.5-10.244-6.182-18.418-13.252-22.875-24.5-2.037-10.925-.294-18.65 5.938-27.75 13.897-17.371 37.542-24.205 58.756-26.703 10.233-.916 20.465-.685 30.619.766v-39zm-79 67c-4.935 5.701-7.469 11.071-7.242 18.672.799 7.68 4.594 13.213 10.242 18.328 3.534 2.586 7.194 4.838 11 7l2.133 1.219c5.073 2.711 10.301 4.384 15.867 5.781l3.176.852c9.168 2.107 18.114 2.435 27.512 2.461l3.669.016c11.049-.086 21.795-1.16 32.206-5.016l2.166-.79c11.518-4.356 23.77-10.872 29.272-22.523 1.653-5.518 2.254-11.909.059-17.32-2.484-4.096-5.472-7.5-9.059-10.68l-1.824-1.648C342.744 371.367 331.013 367.299 319 365l-3.238-.621c-29.297-4.725-59.548-1.03-82.762 18.621z" fill="#fece6c"/><path d="M108 167c3.183 3.089 5.475 6.103 7.785 9.902l1.037 1.696 3.24 5.339 2.182 3.576L128 197l1.577 2.074c2.042 4.2 1.9 8.01 1.931 12.626l.054 2.949.119 9.707.1 6.897.32 73.361-.008 18.929-.021 35.567-.017 28.424-.001 2.041-.004 10.145L132 483c-2.695-2.637-4.824-5.053-6.734-8.309l-1.492-2.518-1.523-2.611-2.984-5.059-1.468-2.59c-1.708-2.927-1.708-2.927-3.835-5.343-8.65-11.157-7.026-24.164-6.871-37.658l-.004-8.252.066-17.705.096-25.598.146-41.54.164-40.33.006-2.515.03-12.492L108 167z" fill="#df3260"/><path d="M264.867 36.953C270.344 41.601 274.225 46.385 277 53l1.184 2.543c5.746 14.734 5.634 37.933-.197 52.739-3.814 6.643-12.267 9.106-18.986 11.718l.84-3.508 1.098-4.617.553-2.305c3.657-15.425 5.388-32.4-2.658-46.637-3.877-6.01-9.015-8.986-15.832-10.934-14.645-1.431-27.376 3.362-38.782 12.415-3.925 3.342-7.606 6.91-11.218 10.585l-2.016 2.02c-18.262 19.584-29.572 47.11-29.211 73.848.23 6.273 1.44 12.66 4.328 18.273C167 171 167 171 167 174l-6.812 4-1.947 1.156C153.34 182 153.34 182 150 182l-1.437-4.125-.809-2.32c-7.889-26.733 3.012-57.826 15.494-81.231C178.74 66.247 201.38 41.141 233 31.688c10.843-2.303 22.595-1.05 31.867 5.266z" fill="#fbba20"/><path d="M258 33c-2 1-2 1-4.875.063-13.009-3.889-26.306.621-37.875 6.688-6.308 3.451-11.854 7.488-17.25 12.25l-2.48 2.082C169.178 76.748 149.966 113.359 147 148c-.649 9.878-.584 19.206 2.344 28.75C150 179 150 179 150 182l2 1c-6.128 4.085-6.128 4.085-9.562 3.75-8.9-6.39-12.873-17.955-15.049-28.302-.687-4.333-.728-8.631-.701-13.01l.017-2.923C127.335 104.953 147.569 68.701 174 43c26.101-25.11 54.106-29.551 84-10z" fill="#fedc98"/><path d="M390.5 245.625l2.124.002c11.812.042 23.011.995 34.376 4.373l2.151.633c14.693 4.514 29.937 12.426 37.724 26.179L469 281l1 2c1.051 12.853-.644 20.968-9 31.125-16.988 17.825-44.041 23.436-67.734 24.216-24.65.362-51.721-5.689-70.04-23.048-6.798-7.001-11.231-13.738-11.664-23.668.394-10.989 5.57-18.275 13.438-25.625 8.979-7.474 18.253-12.339 29.375-15.687l2.034-.614c11.278-3.216 22.395-4.108 34.091-4.073zM329 275c-4.93 6.229-7.452 11.3-7.336 19.313 1.032 8.254 7.19 14.564 13.336 19.688 21.095 15.717 50.44 17.355 75.611 14.226 16.403-2.411 34.154-8.862 44.83-22.046 4.573-6.395 5.668-12.482 4.559-20.18-3.292-10.174-12.436-16.898-21.5-21.75-31.787-14.971-83.26-16.3-109.5 10.75z" fill="#fece6b"/><path d="M470 288h1v33h-2l-.918 1.758-1.27 2.367-1.23 2.32C458.636 338.662 447.007 345.257 435 350l-2.566 1.082c-26.864 10.69-61.846 9.087-88.4-2.155-13.616-6.21-25.458-14.516-31.033-28.927-.863-2.922-1.118-5.504-1.098-8.547l.01-2.559.025-2.645.014-2.691L312 297c1.706 2.558 2.828 4.837 4.063 7.625 7.247 14.411 22.685 22.063 37.414 27.055 28.705 8.863 62.289 7.966 89.438-5.566C454.782 319.83 464.507 311.958 469 299a83.65 83.65 0 0 0 .625-5.812l.227-2.957L470 288z" fill="#fcba1f"/><path d="M279 130c1.813 1.063 1.813 1.063 3 3 .651 5.532-.541 10.091-3 15l-1.535 1.778c-1.819 2.759-1.842 4.384-1.849 7.671l-.031 3.311.009 3.573-.033 3.709-.061 11.772c-.109 37.928-.109 37.928-7.125 53.75l-1.052 2.416C258.406 255.847 243.781 274.054 223 282c-7.637 2.813-14.763 3.36-22.25-.062-7.144-3.981-11.081-9.21-13.75-16.937-.794-3.99-1.123-7.758-1.114-11.822v-3.396l.016-3.618.004-3.741.031-11.798.014-8.012L186 203l-2.375-.312C181 202 181 202 179 199c-.61-6.327 1.724-11.115 5.391-16.109 2.038-2.394 3.62-3.844 6.609-4.891 3.188.125 3.188.125 6 1 2.516 3.773 2.077 5.398 1.48 9.715-.79 3.758-2.055 7.101-5.057 9.595-2.047 2.431-1.811 4.216-1.828 7.364l-.038 3.532.009 3.826-.016 3.944.003 8.282-.038 10.526-.012 10.123-.034 3.776c.063 7.959.596 16.667 5.977 23.028 5.24 4.562 9.694 5.814 16.49 5.66 14.403-1.745 26.964-12.67 35.828-23.535C257.654 244.212 263.47 231.722 267 219l1.023-3.363c1.442-5.824 1.332-11.698 1.391-17.668l.059-3.732.152-11.736.117-7.984L270 155l-2.383.09C265 155 265 155 263.125 153.563c-1.773-4.037-1.334-7.375-.125-11.562 3.303-6.616 7.729-13.306 16-12z" fill="#fdf6f8"/><path d="M132 108c1.325 3.975.199 6.851-.875 10.75-5.375 19.869-5.161 40.059 4.277 58.559 2.149 3.621 4.624 6.718 7.598 9.691l-6 4c-2.824-3.419-5.295-6.903-7.637-10.668l-1.998-3.205-2.053-3.314-2.088-3.35c-5.063-8.139-5.063-8.139-6.225-10.463-2.23-.727-2.23-.727-4.979-1.237l-3.215-.667-3.497-.698-3.561-.731-11.311-2.292-7.646-1.562L64 149c2.918-3.007 5.576-5.087 9.262-7.102l3.114-1.719 3.312-1.804 6.844-3.785 3.371-1.864a512.44 512.44 0 0 0 11.785-6.789l1.952-1.156 4.053-2.41 11.317-6.694L132 108z" fill="#dedffa"/><path d="M215.188 77.313L217 78v5l3.063-1.5c3.717-1.616 6.877-1.749 10.938-1.5.369 6.512.369 6.512-1.227 8.625-2.055 1.593-3.858 2.291-6.336 3.063l-2.379.762C219 93 219 93 217 93v18l3-1c4.427-.497 7.846-.865 11.5 1.875 2.751 3.897 2.805 6.327 2.5 11.125-.716 3.146-1.659 6.066-3 9l-.776 1.786c-3.426 6.637-8.938 9.684-15.325 13.227l-5.286 3.046c-5.91 3.357-9.677 5.359-16.613 4.941-.434-3.735-.292-5.541 1.75-8.75 4.858-3.363 9.412-3.544 15.25-4.25v-18l-5 2c-3.864.315-6.83.377-10-2-2.399-4.078-2.637-8.391-2-13 2.242-8.324 6.814-15.997 13.875-21.062 2.457-2.24 2.451-2.826 2.75-6 .375-3.937.375-3.937 1.688-6C213 77 213 77 215.188 77.313zM389 268l1 6-2.59.621-3.348.816-3.34.809c-2.617.484-2.617.484-3.723 1.754 6.566 4.927 6.566 4.927 14.375 5.938 2.694-.696 2.694-.696 5.363-1.48 3.345-.676 6.675-.682 10.074-.707l2.08-.062c6.426-.049 10.921 1.591 16.045 5.625C427 290 427 290 427.625 292.938c-.869 4.258-2.562 5.999-5.625 9.063h-2v2l4 2-3 3-1.937-1.125c-4.434-1.267-7.686-.048-12.062 1.125l-6.687 1.625-3.199.789c-3.116.586-5.951.69-9.113.586v-7l6.813-1.5 3.832-.844C402 302 402 302 405 302c-3.453-3.67-7.212-6.348-12-8-3.532.119-6.642.945-10 2-8.29 2.364-15.331 1.469-22.906-2.516-2.296-1.628-3.653-3.07-5.094-5.484 0-4.58.526-6.457 3.563-9.937L361 276l-2-3c3-2 3-2 6.25-1.437 4.537.529 6.689-.607 10.75-2.562 4.342-1.225 8.519-1.076 13-1z" fill="#fcbb22"/><path d="M292 376l2 6-5.312 1.5-2.988.844C283 385 283 385 280 385v2l2.063.75C285 389 285 389 288.188 391.25c3.262 1.939 5.312 1.805 9 1.063l6.723-1.875c7.27-1.522 15.053-1.469 21.5 2.43 5.278 3.761 5.278 3.761 6.215 7.883-.904 4.699-3.568 7.665-6.625 11.25l3 3c-3.431 2.287-3.8 2.111-7.625 1.438-4.665-.585-7.488.094-11.793 1.793-5.346 1.593-11.037 1.541-16.582 1.77l-1-7 3.684-.621 4.754-.816 2.432-.408c3.886-.357 3.886-.357 7.131-2.154-6.436-4.221-11.138-6.851-18.906-5.527-1.719.433-3.412.967-5.094 1.527-7.972.618-15.417 1.048-22-4-2.562-2.312-2.562-2.312-4-5 0-4.102.373-6.211 2.938-9.437C264 385 264 385 266 385v-2h-2l1-3c3-1 3-1 5.32-.441 3.421.564 5.339-.256 8.555-1.496 4.682-1.682 8.188-2.511 13.125-2.062z" fill="#fcbb21"/><path d="M312 324c2.712 2.712 3.892 5.839 5.488 9.297 8.15 14.574 25.346 21.327 40.512 25.953 18.229 4.823 37.327 5.005 56 2.75-1.225 6.279-4.959 9.462-10 13-3.5 1.438-3.5 1.438-6 2l1.715.805 2.223 1.07 2.215 1.055C406 381 406 381 407 383l-13.605.165-4.617.062c-19.926.33-19.926.33-26.216-5.476L360 375c-9.833-7.937-20.962-12.663-33.027-16.141L324 358l-3.203-.805c-3.459-1.479-4.105-2.68-5.609-6.07l-1.207-2.617c-1.446-3.699-2.107-6.862-2.078-10.836l.01-2.422.025-2.5.014-2.547L312 324z" fill="#fcba1f"/><path d="M312 316l3.008 6.297c6.394 14.04 19.175 21.818 33.142 27.313 29.938 10.898 65.032 9.715 93.851-3.61 4.17-2.07 8.127-4.418 12-7l1.852-1.234c6.462-4.838 10.321-12.384 13.148-19.766h1c-.043 10.031-3.843 16.836-10.562 24.125-10.352 9.653-26.128 17.942-40.469 19.125C417 361 417 361 416 360l-2 3c-1.961.503-1.961.503-4.375.672l-2.723.193c-29.91 1.389-59.725-1.362-83.453-21.502-3.546-3.421-6.111-7.044-8.449-11.363l-1.023-1.84c-2.232-4.516-2.235-8.253-1.977-13.16z" fill="#fecd68"/><path d="M216 425c1.723 2.584 2.994 5.016 4.313 7.813 6.696 13.353 20.03 21.12 33.864 25.947 5.215 1.661 10.49 3.017 15.824 4.241l3.262.75c27.014 5.085 59.65.491 82.613-15.125 7.741-5.481 12.237-11.053 16.125-19.625l2-4c.789 9.078-3.049 16.858-8.762 23.77-10.147 10.111-22.965 15.357-36.426 19.48l-2.557.784c-9.724 2.862-19.05 3.179-29.134 3.206l-6.463.072c-12.902.1-25.084-1.854-37.221-6.437l-2.407-.903c-14.001-5.494-26.651-13.804-33.12-27.773-1.766-4.268-1.997-7.592-1.91-12.199z" fill="#fece69"/><path d="M470 367h1c-.24 11.455-3.861 19.568-11.715 27.906-9.517 8.72-22.829 14.884-35.285 18.094l-3.172.844c-15.342 3.382-31.211 2.426-46.828 2.156v-7l2.5.048c21.941.539 21.941.539 43.5-3.048l4.203-1.031c15.642-4.031 31.42-11.122 40.734-24.969 2.333-4.103 3.774-8.475 5.063-13z" fill="#fecd68"/><path d="M415 358c2.207 2.207 2.82 3.886 4 6.75 2.93 6.052 7.093 8.407 13 11.25l2.309 1.156L436 378l-1.758.48c-6.587 1.968-10.888 4.24-14.992 9.957-1.363 2.795-2.351 5.588-3.25 8.563h-1l-.34-1.687c-1.845-7.137-5.531-11.282-11.66-15.312-2.755-1.096-5.042-1.57-8-2 3-2 3-2 6.813-3.187 5.925-2.128 8.811-6.748 12.188-11.812.385-1.655.728-3.322 1-5z" fill="#fefcf7"/><path d="M281 84l10 1.875 2.832.527C299.276 87.43 304.64 88.597 310 90c-2.665 3.056-5.842 4.772-9.348 6.758l-1.856 1.056-5.859 3.311-3.955 2.246L277 110c1.208-8.69 2.511-17.354 4-26z" fill="#dedffa"/><path d="M469 345h1c-.45 9.46-3.835 15.87-10 23-10.87 9.543-23.849 15.896-38 19l-2-1c5.955-5.303 11.88-9.08 19.102-12.445C452.47 367.182 463.651 359.479 469 345z" fill="#fece6b"/><path d="M274 130c2.703-.219 4.44-.329 6.813 1.063 1.887 3.078 1.537 5.382 1.188 8.938-.991 3.614-2.051 6.908-4.532 9.763-1.849 2.818-1.863 4.569-1.9 7.924l-.06 3.457-.019 3.716-.054 3.817-.103 10.022-.121 10.236L275 209h-1l-.104-25.557-.047-11.868-.039-11.457-.022-4.367-.016-6.125-.013-3.519c.242-3.13.991-5.256 2.241-8.107.334-3.126.334-3.126 0-6l-2-2z" fill="#ebc3cc"/><path d="M129 123c-.828 14.228-.828 14.228-3.586 18.398-2.93 2.535-4.476 3.602-8.414 3.602-.597-6.471-.265-10.934 3.563-16.305C125.392 123 125.392 123 129 123z" fill="#fefefe"/><path d="M191 178c2.875.313 2.875.313 6 1 2.515 3.773 2.08 5.399 1.477 9.715-.892 4.277-2.343 7.313-5.664 10.16L191 200c-.173-5.107.059-8.268 2-13 .334-3.626.334-3.626 0-7l-2-2z" fill="#e3d5d9"/><path d="M209 98h1v16h-7c-.773-2.65-1.223-4.296-1-7 1.877-3.362 4.279-6.279 7-9z" fill="#fed98b"/><path d="M413 290l2 2c-.375 2.625-.375 2.625-1 5-1.641.684-1.641.684-4 1-2.797-1.215-2.797-1.215-5.75-2.937l-2.984-1.715L399 292v-2c4.657-1.352 9.304-1.061 14 0zM304 398l5.813-.125 3.27-.07C316 398 316 398 319 400c-.482 4.578-.482 4.578-2.687 6.375-2.312.625-2.312.625-5.109-.711l-2.953-2.039-2.984-2.023L303 400l1-2z" fill="#fedb92"/><path d="M217 122h7l1 1c-.116 5.789-1.87 8.608-5.625 12.715C218 137 218 137 217 137v-15z" fill="#fedb94"/><path d="M273 389c5.107.31 8.883 3.231 13 6-2.481 2.481-4.54 2.673-7.957 3.047-2.961-.068-4.752-1.257-7.043-3.047.875-4.875.875-4.875 2-6z" fill="#feda90"/><path d="M370 280l5.375 2.875 3.023 1.617C381 286 381 286 383 288c-2.896.818-5.555 1.189-8.562 1.25l-2.316.078c-2.649-.41-3.53-1.208-5.121-3.328.27-2.974.854-3.854 3-6z" fill="#fedb91"/><path d="M312 342c1.669 3.338 2.874 6.462 4 10h-2l1 4h-3v-14z" fill="#fdc448"/><path d="M312 316c1.737 3.225 2.891 6.513 4 10h-3c-1.607-3.215-1.057-6.436-1-10z" fill="#fec95b"/></svg>