<svg xmlns="http://www.w3.org/2000/svg" width="512" height="512" xmlns:v="https://vecta.io/nano"><path d="M232.732 69.612l3.346-.016 10.821.006 7.573-.009 15.81.016 18.241-.005 17.626-.005 7.471-.007 10.424.021 3.108-.018c6.117.054 10.813.574 15.492 4.942 3.931 5.141 4.513 8.022 4.548 14.377l.025 2.48.056 8.167.016 2.831.061 14.888.082 12.229.081 14.829.046 5.605c.161 13.139-1.669 24.522-5.559 37.06-1.309 4.347-2.25 8.27-2.309 12.844l-.069 3.255-.06 3.402c-.771 25.911-7.877 46.995-26.562 65.5l-3.076 2.116c-2.773 2.31-2.915 2.842-3.697 6.665a108.51 108.51 0 0 0-.032 4.364l-.042 2.333-.029 7.335-.062 4.99L306 312l2.337-.13c2.663.13 2.663.13 5.268 2.212 2.534 3.088 4.097 5.956 5.707 9.605l1.551 3.449C322 330 322 330 322 332l1.958.298c4.061.937 7.827 2.433 11.71 3.932l5.146 1.932 8.043 3.062 7.81 2.944 2.381.95c6.212 2.254 10.665 1.598 16.951-.118l4.668-.973c10.172-2.158 10.172-2.158 17.77-8.84l1.371-2.395L401 331h3v-12l-5-2c-9.935-7.187-16.178-18.177-19-30-.361-3.222-.543-6.452-.75-9.687-.664-8.601-2.39-16.391-5.13-24.563-3.763-11.245-5.731-25.591-1.147-36.827 4.676-8.747 11.946-11.822 20.777-15.484 3.377-1.494 6.205-3.362 9.25-5.438 3.41-1.137 6.059-1.148 9.655-1.177l2.036-.02 6.668-.041 2.305-.012 12.084-.045 12.451-.085 9.6-.038 4.588-.035c14.931-.17 14.931-.17 20.612 4.453 7.637 9.647 5.501 23.102 4.762 34.758-.725 6.076-2.179 11.706-3.998 17.525-2.718 8.731-4.196 16.55-4.326 25.717-.256 16.222-6.013 27.834-17.41 39.371C460 317 460 317 455 319v12l4 1c4 5.222 4 5.222 4 8l2.797.664 10.729 2.699 5.033 1.271C502.325 349.83 502.325 349.83 509 359c2.491 5.016 3.379 8.653 3.404 14.341l.021 2.112.009 6.841.016 4.784-.003 9.993.038 12.801.012 9.865.018 4.721-.013 6.591-.001 3.785c-.62 3.916-1.328 4.831-4.501 7.167-2.911.392-5.442.538-8.352.503l-2.589.018c-2.883.015-5.764.001-8.647-.013l-6.239.019a3381.91 3381.91 0 0 1-17.189-.004c-6.173-.009-12.346.005-18.52.016l-34.198.004-31.59-.008-2.115.001-8.498.004c-26.585.012-53.171.001-79.756-.02-23.631-.019-47.263-.017-70.894.002l-79.608.018-8.483-.004-2.11-.001c-10.525-.005-21.049.001-31.574.011-11.964.011-23.929.008-35.893-.013l-18.326-.001a2816.8 2816.8 0 0 1-16.758-.016c-2.027-.004-4.054-.002-6.081.008a734.49 734.49 0 0 1-8.23-.019l-2.415.028c-3.541-.049-5.551-.243-8.427-2.393-1.984-2.809-2.03-4.608-2.06-8.034l-.058-3.602.006-3.886-.026-4.014-.004-8.418-.069-10.711-.025-8.298-.057-5.845c.098-9.461 2.279-15.887 9.079-22.597 6.846-4.386 13.949-8.071 21.266-11.609l7.004-3.43 3.092-1.5C41.9 347.203 41.9 347.203 43 346l-3.523-.848c-8.642-2.14-17.094-4.531-25.414-7.715l-2.273-.85C4.316 333.634 4.316 333.634 2 330c-1.109-6.485.721-12.377 2.688-18.5 4.371-14.52 7.425-29.261 9.371-44.301l.26-2.005 1.163-9.655C16.959 243.189 19.877 232.297 27 222l1.52-2.301C35.816 209.42 46.176 202.953 58 199l2.156-.742c13.986-3.927 29.646-1.553 42.406 4.805 10.782 6.16 18.555 14.034 24.438 24.938l1.43 2.578c4.922 9.727 6.049 20.312 7.43 30.984 2.632 20.276 6.147 40.244 12.574 59.703.687 3.318.52 5.483-.434 8.734-7.734 10.281-29.848 13.766-42 16 4.307 2.827 8.696 5.463 13.25 7.875l2.453 1.305c2.732.976 3.581.702 6.297-.18a118.56 118.56 0 0 0 4.526-2.286c5.543-2.825 11.223-5.014 17.064-7.14l3.231-1.189 6.703-2.453 10.282-3.778 6.533-2.393 3.106-1.146 2.874-1.043 2.526-.923C187 332 187 332 190 332l.48-1.652c2.098-6.78 4.428-14.286 10.52-18.348 2.688-.125 2.688-.125 5 0l.177-14.404.08-4.888c.414-10.029.414-10.029-3.619-18.87-2.771-2.482-5.621-4.667-8.638-6.838-14.493-14.669-20.927-35.668-21.139-55.796-.188-12.816-1.998-24.025-6.213-36.121-1.689-5.425-1.837-10.593-1.887-16.231l-.024-2.696-.032-5.653-.062-5.701c-.327-20.935 3.121-38.824 18.027-54.619 13.801-13.963 30.539-20.688 50.062-20.571z" fill="#fe4f7c"/><path d="M232.732 69.612l3.346-.016 10.821.006 7.573-.009 15.81.016 18.241-.005 17.626-.005 7.471-.007 10.424.021 3.108-.018c6.117.054 10.813.574 15.492 4.942 3.931 5.141 4.513 8.022 4.548 14.377l.025 2.48.056 8.167.016 2.831.061 14.888.082 12.229.081 14.829.046 5.605c.161 13.139-1.669 24.522-5.559 37.06-1.309 4.347-2.25 8.27-2.309 12.844l-.069 3.255-.06 3.402c-.771 25.911-7.877 46.995-26.562 65.5l-3.1 2.115c-2.794 2.328-2.882 2.773-3.498 6.662.033 1.459.095 2.918.18 4.375l.072 4.791.273 7.498c.22 5.345.268 10.323-.927 15.559-3.157 3.34-6.751 4.44-11 6a141.3 141.3 0 0 0-5.867 3.586l-2.975 1.871-3.033 1.918-3.177 1.988-13.182 8.426-1.786 1.163-4.394 2.923c-3.472 1.51-4.974 1.268-8.586.125-2.894-1.527-5.591-3.311-8.312-5.125l-5.016-3.246-2.729-1.761c-5.441-3.452-10.975-6.749-16.506-10.055l-3.335-1.999c-4.98-3.035-4.98-3.035-10.102-5.814l.083-3.146.094-11.686.08-5.033c.436-10.259.436-10.259-3.619-19.329-2.769-2.48-5.614-4.651-8.638-6.807-14.498-14.656-20.927-35.676-21.139-55.796-.188-12.816-1.998-24.025-6.213-36.121-1.689-5.425-1.837-10.593-1.887-16.231l-.024-2.696-.032-5.653-.062-5.701c-.327-20.935 3.121-38.824 18.027-54.619 13.801-13.963 30.539-20.688 50.062-20.571z" fill="#efbf86"/><path d="M112.02 209.293c6.38 5.49 10.992 11.315 14.98 18.707l1.43 2.578c4.922 9.727 6.049 20.312 7.43 30.984 2.632 20.276 6.147 40.244 12.574 59.703.687 3.318.52 5.483-.434 8.734-7.734 10.281-29.848 13.766-42 16 6.427 4.202 13.094 7.65 20 11-1.295 2.71-2.746 5.148-4.437 7.625-5.394 8.68-6.014 17.399-5.961 27.426l-.009 3.688.016 7.667-.019 11.737.012 7.471-.018 3.539.029 3.299.007 2.89c.59 4.12 2.479 6.758 5.381 9.66l-45.557.207-21.153.095-20.405.078-7.794.043-10.897.031-3.272.044c-7.188-.04-7.188-.04-10.588-2.158-1.672-2.932-1.854-4.861-1.884-8.235l-.058-3.602.006-3.886-.026-4.014-.004-8.418-.069-10.711-.025-8.298-.057-5.845c.098-9.461 2.279-15.887 9.079-22.597 6.846-4.386 13.949-8.071 21.266-11.609l7.004-3.43 3.092-1.5C41.9 347.203 41.9 347.203 43 346l-3.523-.848c-8.642-2.14-17.094-4.531-25.414-7.715l-2.273-.85C4.316 333.634 4.316 333.634 2 330c-1.109-6.485.721-12.377 2.688-18.5 4.371-14.52 7.425-29.261 9.371-44.301l.26-2.005 1.163-9.655C16.959 243.189 19.877 232.297 27 222l1.52-2.301C35.816 209.42 46.176 202.953 58 199l2.156-.742c18.024-5.061 37.276-.042 51.863 11.035z" fill="#d5dbec"/><path d="M412.655 193.823l2.036-.02 6.668-.041 2.305-.012 12.084-.045 12.451-.085 9.6-.038 4.588-.035c14.931-.17 14.931-.17 20.612 4.453 7.637 9.647 5.501 23.102 4.762 34.758-.725 6.076-2.179 11.706-3.998 17.525-2.718 8.731-4.196 16.55-4.326 25.717-.256 16.222-6.013 27.834-17.41 39.371C460 317 460 317 455 319v12l4 1c4 5.222 4 5.222 4 8l2.797.664 10.729 2.699 5.033 1.271C502.325 349.83 502.325 349.83 509 359c2.491 5.016 3.379 8.653 3.404 14.341l.021 2.112.009 6.841.016 4.784-.003 9.993.038 12.801.012 9.865.018 4.721-.013 6.591-.001 3.785C512 438 512 438 510.668 440.406c-4.382 2.618-8.858 2.115-13.863 2.048l-3.46.002-11.33-.065-7.852-.017-18.561-.085-21.134-.087L391 442l1.938-2.375c2.847-3.623 3.191-5.3 3.224-9.834l.029-3.299.013-3.586.017-3.686.02-7.747.072-11.785.016-7.531.037-3.536c-.03-11.219-2.353-20.608-9.752-29.237-5.42-5.27-12.691-7.675-19.613-10.383 2.462-2.462 4.042-2.643 7.418-3.41l3.303-.814 6.875-1.594c7.317-1.854 10.989-3.876 15.031-10.351L401 331h3v-12l-5-2c-9.935-7.187-16.178-18.177-19-30-.361-3.222-.543-6.452-.75-9.687-.664-8.601-2.39-16.391-5.13-24.563-3.763-11.245-5.731-25.591-1.147-36.827 4.676-8.747 11.946-11.822 20.777-15.484 3.377-1.494 6.205-3.362 9.25-5.437 3.41-1.137 6.059-1.148 9.655-1.177z" fill="#efbf86"/><path d="M232.732 69.612l3.346-.016 10.821.006 7.573-.009 15.81.016 18.241-.005 17.626-.005 7.471-.007 10.424.021 3.108-.018c6.117.054 10.813.574 15.492 4.942 3.931 5.141 4.513 8.022 4.548 14.377l.025 2.48.056 8.167.016 2.831.061 14.888.082 12.229.081 14.829.046 5.605c.161 13.142-1.675 24.519-5.559 37.06-1.123 3.795-2.209 7.487-2.625 11.438L339 202h-1l-.191-1.687c-1.106-6.89-4.013-10.424-8.809-15.313-6.001-6.767-7.227-10.762-7.363-19.809-1.038-5.2-4.354-7.271-8.512-10.254-10.755-6.668-21.486-10.687-33.75-13.687l-2.602-.639c-22.788-5.291-47.918-3.693-70.773.389l-2.091.372c-6.348.947-6.348.947-11.517 4.324-1.744 2.887-1.76 4.741-1.762 8.1l-.053 3.406-.016 7.047c-.139 8.409-1.18 13.942-6.814 20.289l-2.309 2.086c-3.469 3.292-5.725 5.922-7.437 10.375-1.842-2.763-2.59-4.578-3.473-7.711l-.787-2.773-.803-2.891-.814-2.867c-2.107-7.482-3.293-14.132-3.361-21.906l-.024-2.696-.032-5.653-.062-5.701c-.327-20.935 3.121-38.824 18.027-54.619 13.801-13.963 30.539-20.688 50.062-20.571z" fill="#694b4b"/><path d="M401 331c4.175.702 5.928 1.479 8.813 4.625 3.861 4.064 7.925 7.739 12.188 11.375l2.059 1.77L429 353c5.289-3.062 9.202-7.112 13.473-11.453 2.239-2.256 4.495-4.464 6.84-6.609l1.801-1.66c2.264-1.533 4.201-1.903 6.887-2.277l2.5 3.375 1.406 1.898C463 338 463 338 463 340l2.797.664 10.729 2.699 5.033 1.271C502.325 349.83 502.325 349.83 509 359c2.491 5.016 3.379 8.653 3.404 14.341l.021 2.112.009 6.841.016 4.784-.003 9.993.038 12.801.012 9.865.018 4.721-.013 6.591-.001 3.785C512 438 512 438 510.668 440.406c-4.382 2.618-8.858 2.115-13.863 2.048l-3.46.002-11.33-.065-7.852-.017-18.561-.085-21.134-.087L391 442l1.938-2.375c2.847-3.623 3.191-5.3 3.224-9.834l.029-3.299.013-3.586.017-3.686.02-7.747.072-11.785.016-7.531.037-3.536c-.03-11.219-2.353-20.608-9.752-29.237-5.42-5.27-12.691-7.675-19.613-10.383 2.462-2.462 4.042-2.643 7.418-3.41l3.303-.814 6.875-1.594c7.345-1.861 11.079-3.996 15.323-10.351L401 331z" fill="#d4dbec"/><path d="M273 139l1.978.375c15.749 3.031 34.629 8.38 45.831 20.598 1.974 3.36 1.383 6.198 1.191 10.027l-3.562-1.187-2.488-.824-6.43-2.195c-15.677-5.377-30.241-7.969-46.832-7.918l-3.803-.012c-15.69-.504-15.69-.504-29.885 5.137-4.417 4.757-5.128 7.424-5.177 13.842l-.02 2.135-.041 7.027-.012 2.438-.045 12.819-.085 13.111-.038 10.18-.035 4.823c-.246 22.434 5.641 43.32 20.453 60.626 3.57 2.726 7.748 2.305 12.063 2.25l2.312-.023c15.219-.288 29.376-4.694 42.235-12.774C303 278 303 278 306 277v36l-11 6-5.867 3.586-2.975 1.871-3.033 1.918-3.177 1.988-13.182 8.426-1.786 1.163-4.394 2.923c-3.472 1.51-4.974 1.268-8.586.125-2.894-1.527-5.591-3.311-8.312-5.125l-5.016-3.246-2.729-1.761c-5.441-3.452-10.975-6.749-16.506-10.055l-3.335-1.999c-4.98-3.035-4.98-3.035-10.102-5.814l.083-3.146.094-11.686.08-5.033c.436-10.259.436-10.259-3.619-19.329-2.769-2.48-5.614-4.651-8.638-6.807-15.326-15.493-21.11-37.37-21.312-58.5l-.088-3.051c-.065-7.638 1.102-11.899 6.4-17.602l4-3.562c6.319-7.22 6.531-14.132 6.5-23.473l.031-6.918-.014-3.067c.616-3.612 1.916-5.251 4.482-7.827 2.827-.98 5.28-1.649 8.188-2.187l2.438-.485L212 139l2.036-.364c18.92-3.247 40.142-3.44 58.964.364z" fill="#e5ae77"/><path d="M322 332c4.78.761 9.169 2.382 13.703 4.02l2.537.909 5.305 1.909 8.044 2.884 5.176 1.861 2.397.856c13.143 4.761 27.057 10.024 34.119 22.898 2.671 5.743 3.831 10.927 3.896 17.277l.039 3.338.022 3.577.024 3.702.032 7.744.105 11.837.025 7.529.053 3.571c-.017 6.296-.114 10.365-4.479 15.09-2.448 1.224-4.021 1.123-6.758 1.12l-3.043.004-3.35-.011h-3.518l-11.558-.016-7.995-.004-18.923-.021-21.54-.022L272 442l-2.347-23.733-1.09-11.023-1.05-10.66-.598-5.998c-1.522-15.722-1.522-15.722-.915-20.586 1.938-2.125 1.938-2.125 4-4 .656-2.696.814-5.215 1-8l3.063 2.625 1.941 1.641c1.29 1.121 2.551 2.276 3.773 3.469 2.88 2.743 4.762 4.14 8.66 5.203 5.666-1.491 8.165-5.393 11.563-9.937l1.593-2.13 9.04-12.292c3.642-4.983 7.431-9.823 11.367-14.578z" fill="#fe507c"/><path d="M112.02 209.293c6.38 5.49 10.992 11.315 14.98 18.707l1.43 2.578c4.922 9.727 6.049 20.312 7.43 30.984 2.632 20.276 6.147 40.244 12.574 59.703.687 3.318.52 5.483-.434 8.734-7.628 10.14-28.948 13.412-40.883 15.766L104 346c-4.768-4.14-4.769-8.862-5.414-14.84-.701-10.694-.701-10.694 2.176-14.477 2.34-1.712 4.759-3.183 7.238-4.684 8.221-7.445 13.579-18.027 15-29l.438-3.25c-.616-3.874-2.482-5.433-5.437-7.75l-2.289-1.809C101.264 259.26 78.709 244.526 60 246c-3.596 2.766-5.736 6.061-8.25 9.813-5.69 8.265-12.898 13.572-21.465 18.645-2.528 1.497-2.528 1.497-4.285 4.543-.746 11.158 4.177 21.622 11.164 30.027 3.594 3.862 7.453 7.051 11.836 9.973.388 2.075.388 2.075.398 4.613l.012 2.783-.035 2.916.035 2.881c-.017 3.965-.204 7.206-1.496 10.975C46 345 46 345 42.949 345.48c-4.892-.595-9.422-1.763-14.137-3.168l-2.808-.824C5.813 335.443 5.813 335.443 2 330c-1.144-6.464.727-12.397 2.688-18.5 4.371-14.52 7.425-29.261 9.371-44.301l.26-2.005 1.163-9.655C16.959 243.189 19.877 232.297 27 222l1.52-2.301C35.816 209.42 46.176 202.953 58 199l2.156-.742c18.024-5.061 37.276-.042 51.863 11.035z" fill="#694b4b"/><path d="M70 246c3.145.832 6.154 1.892 9.188 3.063l2.481.942C96.823 255.917 111.672 264.161 123 276l1 1c.317 13.345-4.875 24.318-13.797 33.938-5.727 5.874-5.727 5.874-9.203 8.063h-2c-.34 13.808-.34 13.808 4.699 25.699 3.808 2.996 7.879 5.311 12.301 7.301-5.903 12.32-17.398 18.47-29.875 22.875-12.05 3.22-24.143 1.263-35.102-4.418C43.12 365.7 36.577 360.066 32 352l2.266-1.172 2.984-1.578 2.953-1.547c3.376-2.056 6.012-4.133 7.797-7.703.398-3.408.463-6.823.563-10.25l.189-2.855c.183-5.345.183-5.345-2.445-9.777-2.042-1.509-4.125-2.822-6.307-4.118-8.882-8.09-13.985-19.376-15.375-31.187.491-3.685 1.889-5.077 4.375-7.812 2.48-1.738 2.48-1.738 5.188-3.312 8.884-5.501 14.996-11.148 20.207-20.27 4.291-6.463 8.612-5.776 15.605-4.418z" fill="#e5ae78"/><path d="M204.211 312.109c4.431 1.042 7.586 2.753 11.414 5.141l2.177 1.319L225 323l5.496 3.379 10.727 6.641 2.446 1.506a114.33 114.33 0 0 1 4.519 3.007c3.087 2.124 4.988 3.429 8.786 3.604 4.21-1.581 7.73-3.842 11.465-6.324l5.031-3.254 2.691-1.743 15.277-9.441 2.996-1.829 2.813-1.71 2.49-1.514c6.951-4.058 6.951-4.058 11.264-3.322 3.97 3.432 6.205 6.81 8.375 11.563l1.586 3.379c1.098 3.233 1.12 3.976.039 7.059-1.695 2.464-3.422 4.826-5.25 7.188l-1.602 2.099-3.389 4.42-5.307 6.985L302 359.25l-1.634 2.165c-7.103 9.318-7.103 9.318-11.616 10.273-5.356-.982-8.008-3.898-11.75-7.687l-1.617-1.578c-1.144-1.124-2.266-2.27-3.383-3.422l-.297 1.898-.453 2.477-.422 2.461C270 368 270 368 267.948 369.135L266 370l.228 2.242 2.119 21.049 1.09 10.818 1.05 10.465.598 5.88.364 3.698.323 3.21c.305 4.871.228 9.758.228 14.639h-32c0-12.375 0-12.375.551-17.848l.364-3.698.398-3.871.404-4.056 1.065-10.559 1.086-10.821L246 370l-1.948-.865C242 368 242 368 241.172 365.836l-.422-2.461-.453-2.477L240 359l-2.336 2.371-3.039 3.066-1.539 1.564c-3.079 3.099-4.866 4.724-9.148 5.686-10.705-1.869-19.183-18.982-25.188-27.344-1.211-1.622-2.472-3.208-3.771-4.761l-1.97-2.36-1.816-2.097C190 333 190 333 190.217 330.454c1.076-3.372 2.565-6.491 4.158-9.641l.922-1.904c2.231-4.458 3.571-6.981 8.914-6.799z" fill="#d23c69"/><path d="M412.655 193.823l2.036-.02 6.668-.041 2.305-.012 12.084-.045 12.451-.085 9.6-.038 4.588-.035c14.931-.17 14.931-.17 20.612 4.453 7.637 9.647 5.501 23.102 4.762 34.758-1.274 10.684-4.638 20.979-7.762 31.242-2-2-2-2-3.125-4.687-5.757-10.171-17.07-14.564-27.75-18-9.445-2.604-19.332-4.732-29.125-5.312l-2.93-.195-3.133-.117-2.848-.113c-8.362 1.152-13.721 6.453-19.402 12.301l-2.127 2.105c-5.048 5.111-8.49 9.738-9.561 17.02-2-1-2-1-2.762-2.823l-.711-2.369-.787-2.615-.803-2.756-.814-2.674c-3.611-12.184-6.37-28.077-.123-39.764 4.643-7.539 11.866-10.294 19.75-13.562 3.377-1.494 6.205-3.362 9.25-5.437 3.41-1.137 6.059-1.148 9.655-1.177z" fill="#694b4b"/><path d="M73 197v1l-1.941.445c-7.175 1.861-12.139 4.267-16.375 10.488-3.706 7.038-3.948 15.044-2.023 22.688 2.164 5.555 5.542 8.942 10.34 12.379l-3 2c-3.364 2.99-5.76 6.06-8.25 9.813-5.69 8.265-12.898 13.572-21.465 18.645-2.528 1.497-2.528 1.497-4.285 4.543-.746 11.158 4.177 21.622 11.164 30.027 3.594 3.862 7.453 7.051 11.836 9.973.388 2.075.388 2.075.398 4.613l.012 2.783-.035 2.916.035 2.881c-.017 3.965-.204 7.206-1.496 10.975C46 345 46 345 42.949 345.48c-4.892-.595-9.422-1.763-14.137-3.168l-2.808-.824C5.813 335.443 5.813 335.443 2 330c-1.144-6.464.727-12.397 2.688-18.5 4.371-14.52 7.425-29.261 9.371-44.301l.26-2.005 1.163-9.655C16.959 243.189 19.877 232.297 27 222l1.52-2.301c8.647-12.181 21.987-19.601 36.5-22.43 2.677-.364 5.285-.408 7.98-.27zM238 70v1l-1.836.227c-9.145 1.435-17.194 5.345-22.914 12.82-5.789 9.045-6.834 18.835-4.777 29.375.672 2.012 1.488 3.729 2.527 5.578l1.184 2.266c4.353 7.448 10.705 11.687 18.941 14.109L234 136v1l-2.902.411-10.757 1.56-4.638.666-6.703.976-2.062.285c-4.968.752-9.331 2.068-13.938 4.102-2.277 3.415-2.25 4.687-2.273 8.699l-.062 3.416-.055 7.086c-.172 8.41-1.229 13.991-6.863 20.338l-2.309 2.086c-3.469 3.292-5.725 5.922-7.437 10.375-1.842-2.763-2.59-4.578-3.473-7.711l-.787-2.773-.803-2.891-.814-2.867c-2.107-7.482-3.293-14.132-3.361-21.906l-.024-2.696-.032-5.653-.062-5.701c-.327-20.935 3.121-38.824 18.027-54.619C198.415 74.253 216.256 69.304 238 70z" fill="#5a4146"/><path d="M465.547 247.41c5.991 3.769 11.526 7.948 13.328 15.027L479 265l-1-2c-16.214-6.831-35.674-9.081-53.062-9.375l-2.706-.079c-5.565-.015-8.913.602-13.231 4.454-3.461 4.446-3.44 8.267-3.398 13.668l-.009 2.53.016 5.293-.019 8.011c-.014 10.643.358 20.083 6.035 29.436 1.451 2.423 2.474 4.359 3.375 7.063 11.194 2.128 21.515 1.81 32.23-2.027 2.588-.909 5.071-1.504 7.77-1.973 1.213 9.167 1.213 9.167-1.5 13.266-2.074 2.058-4.222 3.906-6.5 5.734l-3.937 3.5-1.965 1.691-7.098 6.246-2.312 2.059L430 354c-3.671-2.032-6.417-4.222-9.312-7.25-6.886-7.203-6.886-7.203-14.902-13.027C404 332 404 332 403.609 328.863l.141-3.551.109-3.574L404 319l-2.316-.867C391.716 313.925 386.101 303.461 382 294c-3.561-10.328-5.133-23.534-1.09-33.93 2.077-3.945 4.977-6.918 8.09-10.07l2.621-2.805c19.097-20.189 51.4-12.257 73.926.215z" fill="#e5ae77"/><path d="M387 360c3.115 3.038 5.571 5.459 7.25 9.5l.953 2.219c1.5 4.293 1.928 8.363 1.974 12.894l.039 3.338.022 3.577.024 3.702.032 7.744.105 11.837.025 7.529.053 3.571c-.017 6.296-.114 10.365-4.479 15.09-2.33 1.165-3.672 1.121-6.266 1.114h-2.669l-2.885-.016-2.951-.004-9.354-.031-6.332-.014L347 442l-.22-14.459-.082-4.908c-.302-14.571 1.985-23.466 11.993-34.497l5.457-5.479 1.992-1.984 6.234-6.173 4.254-4.227L387 360zm-263 0c4.654 3.9 9.104 7.935 13.414 12.211l1.75 1.733 3.625 3.605 5.516 5.443 3.547 3.531 1.645 1.608c7.035 7.076 11.732 14.659 11.73 24.885l-.031 2.226-.009 2.328-.062 7.304-.027 4.977L165 442l-18.524.275-6.3.103-9.063.111-2.838.078c-4.622.002-6.601-.038-10.345-2.972-2.694-3.621-3.06-5.347-3.092-9.803l-.029-3.299-.013-3.586-.017-3.686-.02-7.747-.072-11.785-.016-7.531-.037-3.536c.023-8.622 1.025-16.886 5.991-24.182l1.289-1.941C123 361 123 361 124 360z" fill="#d23d6a"/><path d="M67 263c17.131 3.953 32.311 14.197 45.813 25.063l1.909 1.462c1.736 1.448 1.736 1.448 4.279 4.476.094 6.667-2.816 10.21-7 15l-1.602 1.852C105.905 315.686 100.85 318.993 95 322l-2.418 1.262c-6.068 2.681-11.908 3.173-18.457 3.301l-2.488.082c-4.279-.027-6.078-.197-9.516-2.949L60 321l-1.66-1.887c-6.58-8.45-9.049-16.713-9.027-27.363l-.123-2.891c-.033-6.801-.033-6.801 2.246-9.661 1.803-1.507 1.803-1.507 3.722-2.875 2.742-1.97 4.633-4.501 6.717-7.136l2.305-2.895L66 264l1-1z" fill="#efbf86"/><path d="M395 339c1.765 2.647 3.198 5.244 4.645 8.07l1.553 2.965 3.195 6.203 1.564 2.957 1.406 2.719c1.496 2.301 1.496 2.301 4.201 2.934 2.811.174 3.911-.274 6.249-1.786L421 361l.586 6.055c.278 2.172.278 2.172 2.414 3.945.228 2.911.228 2.911.184 6.73l-.022 2.123c-.129 8.855-.54 17.703-.961 26.548l-.402 8.772-.264 5.689-.117 2.592c-.3 6.215-.854 12.333-1.418 18.544h-30l4-5c1.273-2.547 1.141-4.358 1.161-7.209l.029-3.299.013-3.586.017-3.686.02-7.747.072-11.785.016-7.531.037-3.536c-.03-11.219-2.353-20.608-9.752-29.237-5.42-5.27-12.691-7.675-19.613-10.383 2.473-2.473 4.262-2.788 7.629-3.691l3.385-.924 3.549-.947 6.941-1.879 3.119-.834c2.309-.5 2.309-.5 3.377-1.724z" fill="#d5dbec"/><path d="M255 343c6.219 2.636 11.087 7.617 15 13 .88 4.18.725 7.806 0 12l-4 2 .228 2.242 2.119 21.049 1.09 10.818 1.05 10.465.598 5.88.364 3.698.323 3.21c.305 4.871.228 9.758.228 14.639h-32c0-12.375 0-12.375.551-17.848l.364-3.698.398-3.871.404-4.056 1.065-10.559 1.086-10.821L246 370l-4-2c-.898-4.261-1.038-7.751 0-12 3.497-5.055 8.35-9.04 13-13z" fill="#717386"/><path d="M401 331c4.173.504 5.989 1.546 8.813 4.625 3.861 4.064 7.925 7.739 12.188 11.375l2.059 1.77L429 353c5.289-3.062 9.202-7.112 13.473-11.453 2.239-2.256 4.495-4.464 6.84-6.609l1.801-1.66c2.264-1.533 4.201-1.903 6.887-2.277.875 1.024 1.725 2.07 2.563 3.125l1.441 1.758c1.42 3.018.722 4.898-.004 8.117-1.621 3.753-3.672 7.258-5.687 10.813l-1.568 2.928c-3.913 6.935-3.913 6.935-7.959 8.518-3.64-.337-5.203-1.752-7.785-4.258l-2 8h-2l3 72h-17c-.179-11.884.552-23.734 1.146-35.598l1.042-28.671.043-3.82c.076-3.037.076-3.037-2.23-4.911-.4-2.323-.74-4.657-1-7l-2.687 2.063C414 366 414 366 411.473 365.887c-3.156-1.132-3.758-2.22-5.348-5.137l-1.496-2.719L403 355l-1.973-3.344-1.965-3.406-1.84-3.172c-1.432-3.605-1.307-5.391-.223-9.078 2.063-2.875 2.063-2.875 4-5z" fill="#c7cee1"/><path d="M509 359c2.433 5.016 3.38 8.673 3.404 14.341l.021 2.112.009 6.841.016 4.784-.003 9.993.038 12.801.012 9.865.018 4.721-.013 6.591-.001 3.785c-.593 3.748-1.478 4.94-4.501 7.167-3.116.454-3.116.454-6.734.391l-3.926-.039-4.09-.102-4.137-.055L479 442l-.275-20.813-.103-7.07-.111-10.203-.078-3.158c-.003-8.709 2.432-15.42 8.214-22.003l2.802-2.761 1.511-1.504 3.134-3.069 4.799-4.731C506.688 359 506.688 359 509 359z" fill="#c7cfe2"/><path d="M11 363l2 1-6 7 3.254 2.633 4.309 3.492 2.135 1.727 4.237 3.458 4.05 3.248 1.856 1.497 1.633 1.289c5.1 5.532 4.933 11.213 4.821 18.305l-.013 3.068-.093 9.658-.041 6.566L33 442l-12.17.22-4.138.082-5.958.089-3.618.063C3.28 441.895 2.367 441.012 0 438c-.521-2.73-.521-2.73-.549-5.895l-.058-3.602.006-3.886-.026-4.014-.004-8.418-.069-10.711-.025-8.298-.057-5.845C-.697 379.086.777 373.481 6 367c2.875-2.625 2.875-2.625 5-4z" fill="#c7cfe1"/><path d="M206 277l4.813 2.688C231.067 290.64 253.116 296.452 276 290l3.566-1a83.03 83.03 0 0 0 21.043-9.547C303 278 303 278 306 277v20c-26.09 11.901-53.839 17.849-81.667 7.838-6.215-2.387-12.247-5.134-18.333-7.838v-20z" fill="#d29b6e"/><path d="M432 356c3.25 2.125 3.25 2.125 6 5 .416 3.504.589 5.821-1 9h-2l3 72h-17c-.179-11.884.552-23.734 1.146-35.598l1.042-28.671.043-3.82c.076-3.037.076-3.037-2.23-4.911-.688-3.101-.709-5.903 0-9 3.093-3.771 6.253-5.808 11-4z" fill="#b0bad2"/><path d="M394 202l-.895 1.707c-3.333 6.914-5.232 13.743-3.105 21.293 2.282 4.401 4.469 6.95 9 9 3.194.714 3.194.714 6 1v2l-3.187 2.313c-4.225 3.067-7.919 6.527-11.625 10.188l-1.706 1.654C383.84 255.8 380.974 260.38 380 267c-2-1-2-1-2.762-2.823l-.711-2.369-.787-2.615-.803-2.756-.814-2.674c-3.611-12.184-6.37-28.077-.123-39.764 4.334-7.037 11.634-12 20-12z" fill="#5a4146"/><path d="M405 320l2.938 1.094c13.595 4.81 25.379 5.862 39.293.879 2.588-.909 5.071-1.504 7.77-1.973 1.213 9.167 1.213 9.167-1.5 13.266-2.074 2.058-4.222 3.906-6.5 5.734l-3.937 3.5-1.965 1.691-7.098 6.246-2.312 2.059L430 354c-3.671-2.032-6.417-4.222-9.312-7.25-3.515-3.603-7.13-6.979-10.961-10.242L408 335l-1.715-1.309c-1.947-2.562-1.575-4.721-1.473-7.879l.082-3.293L405 320z" fill="#d29b6e"/><path d="M49 320l6.348 2.148L58 323l3.238 1.074c4.379 1.078 8.393 1.349 12.887 1.363l2.511.012C84.308 325.307 90.042 323.21 97 320h2l1 19-9 2-2.574.633C74.917 344.779 61.781 343.112 49 338v-18z" fill="#d19a6e"/><path d="M255 343c6.231 2.641 11.055 7.63 15 13 1.091 4.195 1.279 7.836 0 12-2.846 2.642-4.772 3.382-8.625 3.398l-2.641.012-2.734-.035-2.734.035-2.641-.012-2.398-.01c-2.783-.485-4.165-1.485-6.227-3.388-1.451-4.212-1.244-7.752 0-12 3.554-5.031 8.338-9.029 13-13z" fill="#5d5c6e"/><path d="M409 335l2.027.438c6.269 1.212 12.353 1.779 18.723 1.813l2.109.027c3.661-.021 6.87-.384 10.406-1.355 3.522-.869 4.495-.944 7.734.078-13.633 12.67-13.633 12.67-20 18-3.699-2.044-6.458-4.264-9.375-7.312-2.799-2.874-5.612-5.611-8.687-8.187L409 336v-1z" fill="#e5af7a"/><path d="M432 356c3.25 2.125 3.25 2.125 6 5 .538 3.469.876 5.718-1.156 8.691-2.651 1.881-4.691 1.672-7.906 1.621l-3.223-.012C423 371 423 371 421 369c-.688-3.101-.709-5.903 0-9 3.093-3.771 6.253-5.808 11-4z" fill="#979eb6"/><path d="M11 363l2 1-8 8-2-1c4.625-5.75 4.625-5.75 8-8z" fill="#d7d0d2"/></svg>